<svg width="2556" height="1346" xmlns="http://www.w3.org/2000/svg"><g><path d="M-52.93713664636016,-113.79633335396647L10.78152246773243,-239.0274520777166L-208.5763238556683,135.32011594623327Z" fill="#fefffa" stroke="#fefffa"></path><path d="M-52.93713664636016,-113.79633335396647L-208.5763238556683,135.32011594623327L205.60333477333188,39.542486909776926Z" fill="#fcfef8" stroke="#fcfef8"></path><path d="M-52.93713664636016,-113.79633335396647L205.60333477333188,39.542486909776926L10.78152246773243,-239.0274520777166Z" fill="#f9fdf6" stroke="#f9fdf6"></path><path d="M10.78152246773243,-239.0274520777166L205.60333477333188,39.542486909776926L456.20681209489703,-191.10589362680912Z" fill="#f3fbf0" stroke="#f3fbf0"></path><path d="M10.78152246773243,-239.0274520777166L456.20681209489703,-191.10589362680912L1340.7178082875907,-223.619982060045Z" fill="#e7f6e4" stroke="#e7f6e4"></path><path d="M10.78152246773243,-239.0274520777166L1340.7178082875907,-223.619982060045L1807.3744110949337,-231.37890480458736Z" fill="#cdecdc" stroke="#cdecdc"></path><path d="M456.20681209489703,-191.10589362680912L205.60333477333188,39.542486909776926L408.00240805372596,21.641311794519424Z" fill="#eff9ec" stroke="#eff9ec"></path><path d="M456.20681209489703,-191.10589362680912L408.00240805372596,21.641311794519424L678.8252954185009,-9.263056498020887Z" fill="#eaf7e7" stroke="#eaf7e7"></path><path d="M456.20681209489703,-191.10589362680912L678.8252954185009,-9.263056498020887L913.5906293615699,-63.98997623473406Z" fill="#e3f4e1" stroke="#e3f4e1"></path><path d="M456.20681209489703,-191.10589362680912L913.5906293615699,-63.98997623473406L1340.7178082875907,-223.619982060045Z" fill="#d7efdc" stroke="#d7efdc"></path><path d="M678.8252954185009,-9.263056498020887L408.00240805372596,21.641311794519424L663.679231647402,171.42942303791642Z" fill="#e7f6e4" stroke="#e7f6e4"></path><path d="M678.8252954185009,-9.263056498020887L663.679231647402,171.42942303791642L776.8184908479452,36.29660351201892Z" fill="#e2f4e1" stroke="#e2f4e1"></path><path d="M678.8252954185009,-9.263056498020887L776.8184908479452,36.29660351201892L913.5906293615699,-63.98997623473406Z" fill="#ddf2de" stroke="#ddf2de"></path><path d="M913.5906293615699,-63.98997623473406L776.8184908479452,36.29660351201892L973.6582390218973,-14.728840459138155Z" fill="#d8f0dc" stroke="#d8f0dc"></path><path d="M913.5906293615699,-63.98997623473406L973.6582390218973,-14.728840459138155L1340.7178082875907,-223.619982060045Z" fill="#cbebdd" stroke="#cbebdd"></path><path d="M973.6582390218973,-14.728840459138155L776.8184908479452,36.29660351201892L1077.4133110418916,99.2872947268188Z" fill="#d5efdb" stroke="#d5efdb"></path><path d="M973.6582390218973,-14.728840459138155L1077.4133110418916,99.2872947268188L1340.7178082875907,-223.619982060045Z" fill="#c8eade" stroke="#c8eade"></path><path d="M1340.7178082875907,-223.619982060045L1077.4133110418916,99.2872947268188L1455.3021433018148,-13.177780732512474Z" fill="#bce5e2" stroke="#bce5e2"></path><path d="M1340.7178082875907,-223.619982060045L1455.3021433018148,-13.177780732512474L1807.3744110949337,-231.37890480458736Z" fill="#abdce8" stroke="#abdce8"></path><path d="M1455.3021433018148,-13.177780732512474L1077.4133110418916,99.2872947268188L1346.0870363004506,162.6350861415267Z" fill="#bce5e2" stroke="#bce5e2"></path><path d="M1455.3021433018148,-13.177780732512474L1346.0870363004506,162.6350861415267L1616.8802377581596,91.44397554919124Z" fill="#b0dee6" stroke="#b0dee6"></path><path d="M1455.3021433018148,-13.177780732512474L1616.8802377581596,91.44397554919124L1784.903079047799,3.7170504592359066Z" fill="#a6d8e9" stroke="#a6d8e9"></path><path d="M1455.3021433018148,-13.177780732512474L1784.903079047799,3.7170504592359066L1807.3744110949337,-231.37890480458736Z" fill="#a2d4e6" stroke="#a2d4e6"></path><path d="M1807.3744110949337,-231.37890480458736L1784.903079047799,3.7170504592359066L2039.839561600238,-181.97690499946475Z" fill="#97c8e0" stroke="#97c8e0"></path><path d="M1807.3744110949337,-231.37890480458736L2039.839561600238,-181.97690499946475L2357.8453649394214,-180.66755237057805Z" fill="#8db9d7" stroke="#8db9d7"></path><path d="M2039.839561600238,-181.97690499946475L1784.903079047799,3.7170504592359066L1950.7420699484646,108.41791447252035Z" fill="#95c5de" stroke="#95c5de"></path><path d="M2039.839561600238,-181.97690499946475L1950.7420699484646,108.41791447252035L2307.807959150523,176.51109717786312Z" fill="#8bb7d6" stroke="#8bb7d6"></path><path d="M2039.839561600238,-181.97690499946475L2307.807959150523,176.51109717786312L2357.8453649394214,-180.66755237057805Z" fill="#84accf" stroke="#84accf"></path><path d="M2357.8453649394214,-180.66755237057805L2307.807959150523,176.51109717786312L2509.219850599766,-69.23598999157548Z" fill="#809fc7" stroke="#809fc7"></path><path d="M2357.8453649394214,-180.66755237057805L2509.219850599766,-69.23598999157548L2737.0328136719763,-20.354692116379738Z" fill="#8093c0" stroke="#8093c0"></path><path d="M2509.219850599766,-69.23598999157548L2307.807959150523,176.51109717786312L2448.6206139810383,208.92736472189426Z" fill="#809dc5" stroke="#809dc5"></path><path d="M2509.219850599766,-69.23598999157548L2448.6206139810383,208.92736472189426L2696.662092357874,49.28857896476984Z" fill="#8092bf" stroke="#8092bf"></path><path d="M2509.219850599766,-69.23598999157548L2696.662092357874,49.28857896476984L2737.0328136719763,-20.354692116379738Z" fill="#808aba" stroke="#808aba"></path><path d="M2737.0328136719763,-20.354692116379738L2696.662092357874,49.28857896476984L2862.773018348962,289.995063431561Z" fill="#8081b4" stroke="#8081b4"></path><path d="M-208.5763238556683,135.32011594623327L-226.61778828129172,725.3290559537709L-58.5431787930429,360.0785649754107Z" fill="#f0ffef" stroke="#f0ffef"></path><path d="M-208.5763238556683,135.32011594623327L-58.5431787930429,360.0785649754107L205.60333477333188,39.542486909776926Z" fill="#fbfef8" stroke="#fbfef8"></path><path d="M205.60333477333188,39.542486909776926L-58.5431787930429,360.0785649754107L135.86429078131914,361.0622903890908Z" fill="#f5fcf0" stroke="#f5fcf0"></path><path d="M205.60333477333188,39.542486909776926L135.86429078131914,361.0622903890908L364.0216648578644,429.41608054563403Z" fill="#effaea" stroke="#effaea"></path><path d="M205.60333477333188,39.542486909776926L364.0216648578644,429.41608054563403L408.00240805372596,21.641311794519424Z" fill="#f0f9ed" stroke="#f0f9ed"></path><path d="M408.00240805372596,21.641311794519424L364.0216648578644,429.41608054563403L663.679231647402,171.42942303791642Z" fill="#e9f7e5" stroke="#e9f7e5"></path><path d="M663.679231647402,171.42942303791642L364.0216648578644,429.41608054563403L660.0486215204,382.7433436922729Z" fill="#e3f6db" stroke="#e3f6db"></path><path d="M663.679231647402,171.42942303791642L660.0486215204,382.7433436922729L769.2704555019736,350.8680851943791Z" fill="#ddf4d9" stroke="#ddf4d9"></path><path d="M663.679231647402,171.42942303791642L769.2704555019736,350.8680851943791L776.8184908479452,36.29660351201892Z" fill="#e0f3df" stroke="#e0f3df"></path><path d="M776.8184908479452,36.29660351201892L769.2704555019736,350.8680851943791L1000.933203175664,370.3226255066693Z" fill="#d7f1d8" stroke="#d7f1d8"></path><path d="M776.8184908479452,36.29660351201892L1000.933203175664,370.3226255066693L1077.4133110418916,99.2872947268188Z" fill="#d4eeda" stroke="#d4eeda"></path><path d="M1077.4133110418916,99.2872947268188L1000.933203175664,370.3226255066693L1265.560123231262,397.4426780641079Z" fill="#c4ead7" stroke="#c4ead7"></path><path d="M1077.4133110418916,99.2872947268188L1265.560123231262,397.4426780641079L1346.0870363004506,162.6350861415267Z" fill="#bfe7de" stroke="#bfe7de"></path><path d="M1346.0870363004506,162.6350861415267L1265.560123231262,397.4426780641079L1505.0944549776614,306.45390573889017Z" fill="#b2e2dd" stroke="#b2e2dd"></path><path d="M1346.0870363004506,162.6350861415267L1505.0944549776614,306.45390573889017L1616.8802377581596,91.44397554919124Z" fill="#aedde6" stroke="#aedde6"></path><path d="M1616.8802377581596,91.44397554919124L1505.0944549776614,306.45390573889017L1827.1832202002406,241.880896165967Z" fill="#a2d6e5" stroke="#a2d6e5"></path><path d="M1616.8802377581596,91.44397554919124L1827.1832202002406,241.880896165967L1784.903079047799,3.7170504592359066Z" fill="#9fd0e4" stroke="#9fd0e4"></path><path d="M1784.903079047799,3.7170504592359066L1827.1832202002406,241.880896165967L1950.7420699484646,108.41791447252035Z" fill="#99cae1" stroke="#99cae1"></path><path d="M1950.7420699484646,108.41791447252035L1827.1832202002406,241.880896165967L1969.831325020641,470.00301863998175Z" fill="#91c6d8" stroke="#91c6d8"></path><path d="M1950.7420699484646,108.41791447252035L1969.831325020641,470.00301863998175L2307.807959150523,176.51109717786312Z" fill="#8ab9d2" stroke="#8ab9d2"></path><path d="M2307.807959150523,176.51109717786312L1969.831325020641,470.00301863998175L2368.503405433148,264.779816865921Z" fill="#80adc8" stroke="#80adc8"></path><path d="M2307.807959150523,176.51109717786312L2368.503405433148,264.779816865921L2448.6206139810383,208.92736472189426Z" fill="#7ea0c5" stroke="#7ea0c5"></path><path d="M2448.6206139810383,208.92736472189426L2368.503405433148,264.779816865921L2583.4610422700644,304.15854385122657Z" fill="#7d99be" stroke="#7d99be"></path><path d="M2448.6206139810383,208.92736472189426L2583.4610422700644,304.15854385122657L2696.662092357874,49.28857896476984Z" fill="#7f90bd" stroke="#7f90bd"></path><path d="M2696.662092357874,49.28857896476984L2583.4610422700644,304.15854385122657L2862.773018348962,289.995063431561Z" fill="#7e85b4" stroke="#7e85b4"></path><path d="M-58.5431787930429,360.0785649754107L-226.61778828129172,725.3290559537709L-124.02526890859008,684.4426873885095Z" fill="#d6fced" stroke="#d6fced"></path><path d="M-58.5431787930429,360.0785649754107L-124.02526890859008,684.4426873885095L181.2296093814075,574.4419381208718Z" fill="#dafde6" stroke="#dafde6"></path><path d="M-58.5431787930429,360.0785649754107L181.2296093814075,574.4419381208718L135.86429078131914,361.0622903890908Z" fill="#e6fde5" stroke="#e6fde5"></path><path d="M135.86429078131914,361.0622903890908L181.2296093814075,574.4419381208718L364.0216648578644,429.41608054563403Z" fill="#defbe0" stroke="#defbe0"></path><path d="M364.0216648578644,429.41608054563403L181.2296093814075,574.4419381208718L364.81519415974617,716.2217290699482Z" fill="#caf7de" stroke="#caf7de"></path><path d="M364.0216648578644,429.41608054563403L364.81519415974617,716.2217290699482L478.60759533941746,720.7075022533536Z" fill="#bff4dd" stroke="#bff4dd"></path><path d="M364.0216648578644,429.41608054563403L478.60759533941746,720.7075022533536L575.7070536352694,493.68067882955074Z" fill="#c8f6d7" stroke="#c8f6d7"></path><path d="M364.0216648578644,429.41608054563403L575.7070536352694,493.68067882955074L660.0486215204,382.7433436922729Z" fill="#d7f7d6" stroke="#d7f7d6"></path><path d="M660.0486215204,382.7433436922729L575.7070536352694,493.68067882955074L844.3905120156705,611.2472129613161Z" fill="#c8f4ce" stroke="#c8f4ce"></path><path d="M660.0486215204,382.7433436922729L844.3905120156705,611.2472129613161L769.2704555019736,350.8680851943791Z" fill="#cbf3cf" stroke="#cbf3cf"></path><path d="M769.2704555019736,350.8680851943791L844.3905120156705,611.2472129613161L1000.933203175664,370.3226255066693Z" fill="#c5f0cc" stroke="#c5f0cc"></path><path d="M1000.933203175664,370.3226255066693L844.3905120156705,611.2472129613161L1179.0137296915054,531.1149628087878Z" fill="#b5edc8" stroke="#b5edc8"></path><path d="M1000.933203175664,370.3226255066693L1179.0137296915054,531.1149628087878L1265.560123231262,397.4426780641079Z" fill="#b4e9cf" stroke="#b4e9cf"></path><path d="M1265.560123231262,397.4426780641079L1179.0137296915054,531.1149628087878L1391.7500082403421,546.3114013150334Z" fill="#a3e6cf" stroke="#a3e6cf"></path><path d="M1265.560123231262,397.4426780641079L1391.7500082403421,546.3114013150334L1505.0944549776614,306.45390573889017Z" fill="#a5e1d6" stroke="#a5e1d6"></path><path d="M1505.0944549776614,306.45390573889017L1391.7500082403421,546.3114013150334L1652.7051109448075,653.7691422365606Z" fill="#91dcd4" stroke="#91dcd4"></path><path d="M1505.0944549776614,306.45390573889017L1652.7051109448075,653.7691422365606L1785.337975434959,549.8835674487054Z" fill="#88d6d4" stroke="#88d6d4"></path><path d="M1505.0944549776614,306.45390573889017L1785.337975434959,549.8835674487054L1827.1832202002406,241.880896165967Z" fill="#97d3da" stroke="#97d3da"></path><path d="M1827.1832202002406,241.880896165967L1785.337975434959,549.8835674487054L1969.831325020641,470.00301863998175Z" fill="#88c9d2" stroke="#88c9d2"></path><path d="M1969.831325020641,470.00301863998175L1785.337975434959,549.8835674487054L2073.392475116998,695.2962392941117Z" fill="#6ec1cd" stroke="#6ec1cd"></path><path d="M1969.831325020641,470.00301863998175L2073.392475116998,695.2962392941117L2215.7972088083625,578.4826306253672Z" fill="#64b5c7" stroke="#64b5c7"></path><path d="M1969.831325020641,470.00301863998175L2215.7972088083625,578.4826306253672L2368.503405433148,264.779816865921Z" fill="#74b0c2" stroke="#74b0c2"></path><path d="M2368.503405433148,264.779816865921L2215.7972088083625,578.4826306253672L2447.0102678239346,503.3718809299171Z" fill="#6ba3b9" stroke="#6ba3b9"></path><path d="M2368.503405433148,264.779816865921L2447.0102678239346,503.3718809299171L2583.4610422700644,304.15854385122657Z" fill="#7799b8" stroke="#7799b8"></path><path d="M2583.4610422700644,304.15854385122657L2447.0102678239346,503.3718809299171L2762.0284832641482,652.019689399749Z" fill="#678eaa" stroke="#678eaa"></path><path d="M2583.4610422700644,304.15854385122657L2762.0284832641482,652.019689399749L2862.773018348962,289.995063431561Z" fill="#7083a7" stroke="#7083a7"></path><path d="M2862.773018348962,289.995063431561L2762.0284832641482,652.019689399749L2754.3800569698215,876.2412267364562Z" fill="#547ca5" stroke="#547ca5"></path><path d="M2862.773018348962,289.995063431561L2754.3800569698215,876.2412267364562L2801.388827059418,1328.3841422013938Z" fill="#306cb0" stroke="#306cb0"></path><path d="M-124.02526890859008,684.4426873885095L-226.61778828129172,725.3290559537709L17.932185530662537,1031.6932120732963Z" fill="#b3edf8" stroke="#b3edf8"></path><path d="M-124.02526890859008,684.4426873885095L17.932185530662537,1031.6932120732963L169.0228744223714,922.1478377468884Z" fill="#a4e3f3" stroke="#a4e3f3"></path><path d="M-124.02526890859008,684.4426873885095L169.0228744223714,922.1478377468884L181.2296093814075,574.4419381208718Z" fill="#baf2ee" stroke="#baf2ee"></path><path d="M181.2296093814075,574.4419381208718L169.0228744223714,922.1478377468884L364.81519415974617,716.2217290699482Z" fill="#b2eee9" stroke="#b2eee9"></path><path d="M364.81519415974617,716.2217290699482L169.0228744223714,922.1478377468884L501.6533935815096,817.7891635335982Z" fill="#a1e6ea" stroke="#a1e6ea"></path><path d="M364.81519415974617,716.2217290699482L501.6533935815096,817.7891635335982L478.60759533941746,720.7075022533536Z" fill="#a9ebe2" stroke="#a9ebe2"></path><path d="M575.7070536352694,493.68067882955074L478.60759533941746,720.7075022533536L844.3905120156705,611.2472129613161Z" fill="#baf2d4" stroke="#baf2d4"></path><path d="M844.3905120156705,611.2472129613161L478.60759533941746,720.7075022533536L501.6533935815096,817.7891635335982Z" fill="#aaecdb" stroke="#aaecdb"></path><path d="M844.3905120156705,611.2472129613161L501.6533935815096,817.7891635335982L763.1205940805376,956.5568043105304Z" fill="#99e3dd" stroke="#99e3dd"></path><path d="M844.3905120156705,611.2472129613161L763.1205940805376,956.5568043105304L1122.441852595657,735.4661829024553Z" fill="#91e1d6" stroke="#91e1d6"></path><path d="M844.3905120156705,611.2472129613161L1122.441852595657,735.4661829024553L1179.0137296915054,531.1149628087878Z" fill="#9fe7cf" stroke="#9fe7cf"></path><path d="M1179.0137296915054,531.1149628087878L1122.441852595657,735.4661829024553L1358.8454698584974,720.6172227300704Z" fill="#8de2d5" stroke="#8de2d5"></path><path d="M1179.0137296915054,531.1149628087878L1358.8454698584974,720.6172227300704L1391.7500082403421,546.3114013150334Z" fill="#91e1d4" stroke="#91e1d4"></path><path d="M1391.7500082403421,546.3114013150334L1358.8454698584974,720.6172227300704L1652.7051109448075,653.7691422365606Z" fill="#7fd9da" stroke="#7fd9da"></path><path d="M1652.7051109448075,653.7691422365606L1358.8454698584974,720.6172227300704L1446.4697568118572,816.876246035099Z" fill="#70d3df" stroke="#70d3df"></path><path d="M1652.7051109448075,653.7691422365606L1446.4697568118572,816.876246035099L1856.3712416030467,851.5450075082481Z" fill="#5ec7e2" stroke="#5ec7e2"></path><path d="M1652.7051109448075,653.7691422365606L1856.3712416030467,851.5450075082481L1785.337975434959,549.8835674487054Z" fill="#66c8da" stroke="#66c8da"></path><path d="M1785.337975434959,549.8835674487054L1856.3712416030467,851.5450075082481L2073.392475116998,695.2962392941117Z" fill="#5cbed6" stroke="#5cbed6"></path><path d="M2073.392475116998,695.2962392941117L1856.3712416030467,851.5450075082481L2053.8439751788974,865.6783277727664Z" fill="#46aed7" stroke="#46aed7"></path><path d="M2073.392475116998,695.2962392941117L2053.8439751788974,865.6783277727664L2277.48463075608,748.1431754864752Z" fill="#44a6ce" stroke="#44a6ce"></path><path d="M2073.392475116998,695.2962392941117L2277.48463075608,748.1431754864752L2215.7972088083625,578.4826306253672Z" fill="#50aac7" stroke="#50aac7"></path><path d="M2215.7972088083625,578.4826306253672L2277.48463075608,748.1431754864752L2447.0102678239346,503.3718809299171Z" fill="#54a1bd" stroke="#54a1bd"></path><path d="M2447.0102678239346,503.3718809299171L2277.48463075608,748.1431754864752L2548.5558180324733,845.344007872045Z" fill="#4694bc" stroke="#4694bc"></path><path d="M2447.0102678239346,503.3718809299171L2548.5558180324733,845.344007872045L2762.0284832641482,652.019689399749Z" fill="#4b89b2" stroke="#4b89b2"></path><path d="M2762.0284832641482,652.019689399749L2548.5558180324733,845.344007872045L2754.3800569698215,876.2412267364562Z" fill="#3776b4" stroke="#3776b4"></path><path d="M-226.61778828129172,725.3290559537709L-85.30437625944614,1241.3202318549156L-30.30723139643669,1112.474539540708Z" fill="#98d0eb" stroke="#98d0eb"></path><path d="M-226.61778828129172,725.3290559537709L-30.30723139643669,1112.474539540708L17.932185530662537,1031.6932120732963Z" fill="#9fdaf0" stroke="#9fdaf0"></path><path d="M169.0228744223714,922.1478377468884L17.932185530662537,1031.6932120732963L373.2970234192908,1131.330717355013Z" fill="#8ecce2" stroke="#8ecce2"></path><path d="M169.0228744223714,922.1478377468884L373.2970234192908,1131.330717355013L501.6533935815096,817.7891635335982Z" fill="#8fd4e2" stroke="#8fd4e2"></path><path d="M501.6533935815096,817.7891635335982L373.2970234192908,1131.330717355013L635.9925928339362,1195.1683815568686Z" fill="#82c4d4" stroke="#82c4d4"></path><path d="M501.6533935815096,817.7891635335982L635.9925928339362,1195.1683815568686L763.1205940805376,956.5568043105304Z" fill="#82ccd6" stroke="#82ccd6"></path><path d="M763.1205940805376,956.5568043105304L635.9925928339362,1195.1683815568686L752.0958210155368,1172.5117294862866Z" fill="#77b6c7" stroke="#77b6c7"></path><path d="M763.1205940805376,956.5568043105304L752.0958210155368,1172.5117294862866L811.9120797514915,1208.551778420806Z" fill="#73b3c5" stroke="#73b3c5"></path><path d="M763.1205940805376,956.5568043105304L811.9120797514915,1208.551778420806L1201.9995086453855,1006.700702290982Z" fill="#6dbac8" stroke="#6dbac8"></path><path d="M763.1205940805376,956.5568043105304L1201.9995086453855,1006.700702290982L1122.441852595657,735.4661829024553Z" fill="#76cfd6" stroke="#76cfd6"></path><path d="M1122.441852595657,735.4661829024553L1201.9995086453855,1006.700702290982L1358.8454698584974,720.6172227300704Z" fill="#73d4de" stroke="#73d4de"></path><path d="M1358.8454698584974,720.6172227300704L1201.9995086453855,1006.700702290982L1446.4697568118572,816.876246035099Z" fill="#67cde1" stroke="#67cde1"></path><path d="M1446.4697568118572,816.876246035099L1201.9995086453855,1006.700702290982L1575.3842000104487,1107.4656325019896Z" fill="#52b9d9" stroke="#52b9d9"></path><path d="M1446.4697568118572,816.876246035099L1575.3842000104487,1107.4656325019896L1856.3712416030467,851.5450075082481Z" fill="#4ab7e1" stroke="#4ab7e1"></path><path d="M1856.3712416030467,851.5450075082481L1575.3842000104487,1107.4656325019896L1813.764284066856,1077.9243637807667Z" fill="#38a4d6" stroke="#38a4d6"></path><path d="M1856.3712416030467,851.5450075082481L1813.764284066856,1077.9243637807667L2054.946407843381,1084.1133299656212Z" fill="#309bd2" stroke="#309bd2"></path><path d="M1856.3712416030467,851.5450075082481L2054.946407843381,1084.1133299656212L2053.8439751788974,865.6783277727664Z" fill="#359ed3" stroke="#359ed3"></path><path d="M2053.8439751788974,865.6783277727664L2054.946407843381,1084.1133299656212L2346.2321433238685,1001.6562971100211Z" fill="#258ac7" stroke="#258ac7"></path><path d="M2053.8439751788974,865.6783277727664L2346.2321433238685,1001.6562971100211L2277.48463075608,748.1431754864752Z" fill="#2f94cb" stroke="#2f94cb"></path><path d="M2277.48463075608,748.1431754864752L2346.2321433238685,1001.6562971100211L2548.5558180324733,845.344007872045Z" fill="#2c87c4" stroke="#2c87c4"></path><path d="M2548.5558180324733,845.344007872045L2346.2321433238685,1001.6562971100211L2534.1263001970947,1193.278657849878Z" fill="#1a6cb4" stroke="#1a6cb4"></path><path d="M2548.5558180324733,845.344007872045L2534.1263001970947,1193.278657849878L2696.4531674422324,1041.7676046676934Z" fill="#1960ad" stroke="#1960ad"></path><path d="M2548.5558180324733,845.344007872045L2696.4531674422324,1041.7676046676934L2754.3800569698215,876.2412267364562Z" fill="#2569b2" stroke="#2569b2"></path><path d="M2754.3800569698215,876.2412267364562L2696.4531674422324,1041.7676046676934L2801.388827059418,1328.3841422013938Z" fill="#16489e" stroke="#16489e"></path><path d="M-30.30723139643669,1112.474539540708L-85.30437625944614,1241.3202318549156L35.82206139340997,1253.7860674783587Z" fill="#8dafd4" stroke="#8dafd4"></path><path d="M-30.30723139643669,1112.474539540708L35.82206139340997,1253.7860674783587L17.932185530662537,1031.6932120732963Z" fill="#8fbbdb" stroke="#8fbbdb"></path><path d="M17.932185530662537,1031.6932120732963L35.82206139340997,1253.7860674783587L373.2970234192908,1131.330717355013Z" fill="#8ab8d6" stroke="#8ab8d6"></path><path d="M373.2970234192908,1131.330717355013L35.82206139340997,1253.7860674783587L270.61050720512867,1313.3397778496146Z" fill="#83a6c8" stroke="#83a6c8"></path><path d="M373.2970234192908,1131.330717355013L270.61050720512867,1313.3397778496146L565.1921467669308,1298.6282867006958Z" fill="#7ca0c1" stroke="#7ca0c1"></path><path d="M373.2970234192908,1131.330717355013L565.1921467669308,1298.6282867006958L635.9925928339362,1195.1683815568686Z" fill="#7aa6c1" stroke="#7aa6c1"></path><path d="M635.9925928339362,1195.1683815568686L565.1921467669308,1298.6282867006958L811.9120797514915,1208.551778420806Z" fill="#739fb9" stroke="#739fb9"></path><path d="M635.9925928339362,1195.1683815568686L811.9120797514915,1208.551778420806L752.0958210155368,1172.5117294862866Z" fill="#72a6bd" stroke="#72a6bd"></path><path d="M1177.5891775265336,1162.7774545177817L1201.9995086453855,1006.700702290982L811.9120797514915,1208.551778420806Z" fill="#61aac1" stroke="#61aac1"></path><path d="M1177.5891775265336,1162.7774545177817L811.9120797514915,1208.551778420806L998.5177424177527,1296.0954037494957Z" fill="#619ab5" stroke="#619ab5"></path><path d="M1177.5891775265336,1162.7774545177817L998.5177424177527,1296.0954037494957L1291.8314868025482,1415.655969902873Z" fill="#5289b0" stroke="#5289b0"></path><path d="M1177.5891775265336,1162.7774545177817L1291.8314868025482,1415.655969902873L1556.569649465382,1318.2206622697413Z" fill="#4582b4" stroke="#4582b4"></path><path d="M1177.5891775265336,1162.7774545177817L1556.569649465382,1318.2206622697413L1575.3842000104487,1107.4656325019896Z" fill="#4391c2" stroke="#4391c2"></path><path d="M1177.5891775265336,1162.7774545177817L1575.3842000104487,1107.4656325019896L1201.9995086453855,1006.700702290982Z" fill="#50a9cb" stroke="#50a9cb"></path><path d="M1575.3842000104487,1107.4656325019896L1556.569649465382,1318.2206622697413L1710.4904561117291,1283.0211238190532Z" fill="#3582c0" stroke="#3582c0"></path><path d="M1575.3842000104487,1107.4656325019896L1710.4904561117291,1283.0211238190532L1813.764284066856,1077.9243637807667Z" fill="#348cc7" stroke="#348cc7"></path><path d="M1813.764284066856,1077.9243637807667L1710.4904561117291,1283.0211238190532L2054.946407843381,1084.1133299656212Z" fill="#2c84c3" stroke="#2c84c3"></path><path d="M2054.946407843381,1084.1133299656212L1710.4904561117291,1283.0211238190532L2153.317786306143,1258.297994658351Z" fill="#2371b7" stroke="#2371b7"></path><path d="M2054.946407843381,1084.1133299656212L2153.317786306143,1258.297994658351L2346.2321433238685,1001.6562971100211Z" fill="#1c70b7" stroke="#1c70b7"></path><path d="M2346.2321433238685,1001.6562971100211L2153.317786306143,1258.297994658351L2368.3137005008757,1297.1850333921611Z" fill="#125baa" stroke="#125baa"></path><path d="M2346.2321433238685,1001.6562971100211L2368.3137005008757,1297.1850333921611L2493.742264341563,1240.0930514372885Z" fill="#1253a5" stroke="#1253a5"></path><path d="M2346.2321433238685,1001.6562971100211L2493.742264341563,1240.0930514372885L2534.1263001970947,1193.278657849878Z" fill="#1355a6" stroke="#1355a6"></path><path d="M2534.1263001970947,1193.278657849878L2493.742264341563,1240.0930514372885L2678.39201124385,1461.5522981621325Z" fill="#0c308f" stroke="#0c308f"></path><path d="M2534.1263001970947,1193.278657849878L2678.39201124385,1461.5522981621325L2801.388827059418,1328.3841422013938Z" fill="#0b2286" stroke="#0b2286"></path><path d="M2534.1263001970947,1193.278657849878L2801.388827059418,1328.3841422013938L2696.4531674422324,1041.7676046676934Z" fill="#113b96" stroke="#113b96"></path><path d="M-85.30437625944614,1241.3202318549156L-20.330381523817778,1468.5872712917626L35.82206139340997,1253.7860674783587Z" fill="#8799c7" stroke="#8799c7"></path><path d="M35.82206139340997,1253.7860674783587L-20.330381523817778,1468.5872712917626L270.61050720512867,1313.3397778496146Z" fill="#8292c0" stroke="#8292c0"></path><path d="M270.61050720512867,1313.3397778496146L-20.330381523817778,1468.5872712917626L181.00958531722426,1550.3449326753616Z" fill="#7c80b3" stroke="#7c80b3"></path><path d="M270.61050720512867,1313.3397778496146L181.00958531722426,1550.3449326753616L348.4288167580962,1570.7591092027724Z" fill="#757aaa" stroke="#757aaa"></path><path d="M270.61050720512867,1313.3397778496146L348.4288167580962,1570.7591092027724L565.1921467669308,1298.6282867006958Z" fill="#7585b0" stroke="#7585b0"></path><path d="M565.1921467669308,1298.6282867006958L348.4288167580962,1570.7591092027724L607.5907590799034,1529.9838685244322Z" fill="#6e77a4" stroke="#6e77a4"></path><path d="M565.1921467669308,1298.6282867006958L607.5907590799034,1529.9838685244322L750.9857306443155,1495.9598408080637Z" fill="#6b7aa2" stroke="#6b7aa2"></path><path d="M565.1921467669308,1298.6282867006958L750.9857306443155,1495.9598408080637L811.9120797514915,1208.551778420806Z" fill="#6c8cad" stroke="#6c8cad"></path><path d="M811.9120797514915,1208.551778420806L750.9857306443155,1495.9598408080637L998.5177424177527,1296.0954037494957Z" fill="#6489a9" stroke="#6489a9"></path><path d="M998.5177424177527,1296.0954037494957L750.9857306443155,1495.9598408080637L1071.4731047675014,1484.2215002328157Z" fill="#5b769d" stroke="#5b769d"></path><path d="M998.5177424177527,1296.0954037494957L1071.4731047675014,1484.2215002328157L1291.8314868025482,1415.655969902873Z" fill="#5076a3" stroke="#5076a3"></path><path d="M1291.8314868025482,1415.655969902873L1071.4731047675014,1484.2215002328157L1422.6084119081497,1593.1370428204536Z" fill="#41679b" stroke="#41679b"></path><path d="M1291.8314868025482,1415.655969902873L1422.6084119081497,1593.1370428204536L1573.6406993865967,1444.304749444127Z" fill="#3660a0" stroke="#3660a0"></path><path d="M1291.8314868025482,1415.655969902873L1573.6406993865967,1444.304749444127L1556.569649465382,1318.2206622697413Z" fill="#376cac" stroke="#376cac"></path><path d="M1556.569649465382,1318.2206622697413L1573.6406993865967,1444.304749444127L1710.4904561117291,1283.0211238190532Z" fill="#306eb3" stroke="#306eb3"></path><path d="M1710.4904561117291,1283.0211238190532L1573.6406993865967,1444.304749444127L1865.5920000001788,1497.6460758782923Z" fill="#275ca9" stroke="#275ca9"></path><path d="M1710.4904561117291,1283.0211238190532L1865.5920000001788,1497.6460758782923L2153.317786306143,1258.297994658351Z" fill="#205caa" stroke="#205caa"></path><path d="M2153.317786306143,1258.297994658351L1865.5920000001788,1497.6460758782923L1963.6515485867858,1528.43610053882Z" fill="#17469c" stroke="#17469c"></path><path d="M2153.317786306143,1258.297994658351L1963.6515485867858,1528.43610053882L2181.3862747326493,1477.2516382858157Z" fill="#123f98" stroke="#123f98"></path><path d="M2153.317786306143,1258.297994658351L2181.3862747326493,1477.2516382858157L2368.3137005008757,1297.1850333921611Z" fill="#0e429a" stroke="#0e429a"></path><path d="M2368.3137005008757,1297.1850333921611L2181.3862747326493,1477.2516382858157L2453.058814611286,1594.381702747196Z" fill="#052588" stroke="#052588"></path><path d="M2368.3137005008757,1297.1850333921611L2453.058814611286,1594.381702747196L2493.742264341563,1240.0930514372885Z" fill="#082b8c" stroke="#082b8c"></path><path d="M2493.742264341563,1240.0930514372885L2453.058814611286,1594.381702747196L2678.39201124385,1461.5522981621325Z" fill="#061980" stroke="#061980"></path><path d="M348.4288167580962,1570.7591092027724L1422.6084119081497,1593.1370428204536L607.5907590799034,1529.9838685244322Z" fill="#5e7290" stroke="#5e7290"></path><path d="M607.5907590799034,1529.9838685244322L1422.6084119081497,1593.1370428204536L750.9857306443155,1495.9598408080637Z" fill="#576f90" stroke="#576f90"></path><path d="M750.9857306443155,1495.9598408080637L1422.6084119081497,1593.1370428204536L1071.4731047675014,1484.2215002328157Z" fill="#4d6b94" stroke="#4d6b94"></path><path d="M1422.6084119081497,1593.1370428204536L2453.058814611286,1594.381702747196L1963.6515485867858,1528.43610053882Z" fill="#14448e" stroke="#14448e"></path><path d="M1422.6084119081497,1593.1370428204536L1963.6515485867858,1528.43610053882L1865.5920000001788,1497.6460758782923Z" fill="#1f5099" stroke="#1f5099"></path><path d="M1422.6084119081497,1593.1370428204536L1865.5920000001788,1497.6460758782923L1573.6406993865967,1444.304749444127Z" fill="#2758a0" stroke="#2758a0"></path><path d="M1963.6515485867858,1528.43610053882L2453.058814611286,1594.381702747196L2181.3862747326493,1477.2516382858157Z" fill="#072f86" stroke="#072f86"></path></g></svg>
