<svg width="2556" height="1302" xmlns="http://www.w3.org/2000/svg"><g><path d="M-39.59777791053057,-71.82053762488067L-105.34888959489763,42.80883863568306L83.00958632491529,31.8177227396518Z" fill="#b3002a" stroke="#b3002a"></path><path d="M-39.59777791053057,-71.82053762488067L83.00958632491529,31.8177227396518L106.1860035918653,-99.50034216977656Z" fill="#b0052a" stroke="#b0052a"></path><path d="M106.1860035918653,-99.50034216977656L83.00958632491529,31.8177227396518L257.38878490403295,-84.74640235304832Z" fill="#b80e2a" stroke="#b80e2a"></path><path d="M106.1860035918653,-99.50034216977656L257.38878490403295,-84.74640235304832L985.2881225198507,-118.8485581241548Z" fill="#c32f34" stroke="#c32f34"></path><path d="M257.38878490403295,-84.74640235304832L83.00958632491529,31.8177227396518L270.1539929397404,55.23257760331035Z" fill="#c9132a" stroke="#c9132a"></path><path d="M257.38878490403295,-84.74640235304832L270.1539929397404,55.23257760331035L379.236399801448,-70.63908568583429Z" fill="#c91e2d" stroke="#c91e2d"></path><path d="M257.38878490403295,-84.74640235304832L379.236399801448,-70.63908568583429L985.2881225198507,-118.8485581241548Z" fill="#c93a39" stroke="#c93a39"></path><path d="M379.236399801448,-70.63908568583429L270.1539929397404,55.23257760331035L382.44252663105726,103.03472081199288Z" fill="#da292f" stroke="#da292f"></path><path d="M379.236399801448,-70.63908568583429L382.44252663105726,103.03472081199288L528.4612764883786,-59.80455715209246Z" fill="#d62d34" stroke="#d62d34"></path><path d="M379.236399801448,-70.63908568583429L528.4612764883786,-59.80455715209246L654.334541587159,-64.2115512304008Z" fill="#ce3839" stroke="#ce3839"></path><path d="M379.236399801448,-70.63908568583429L654.334541587159,-64.2115512304008L985.2881225198507,-118.8485581241548Z" fill="#cd4b41" stroke="#cd4b41"></path><path d="M528.4612764883786,-59.80455715209246L382.44252663105726,103.03472081199288L518.985443841666,107.18318299390376Z" fill="#e63e36" stroke="#e63e36"></path><path d="M528.4612764883786,-59.80455715209246L518.985443841666,107.18318299390376L643.0165546014905,41.29620001651347Z" fill="#e4443b" stroke="#e4443b"></path><path d="M528.4612764883786,-59.80455715209246L643.0165546014905,41.29620001651347L654.334541587159,-64.2115512304008Z" fill="#d8433e" stroke="#d8433e"></path><path d="M654.334541587159,-64.2115512304008L643.0165546014905,41.29620001651347L782.125289356336,-47.981999265030026Z" fill="#da4e43" stroke="#da4e43"></path><path d="M654.334541587159,-64.2115512304008L782.125289356336,-47.981999265030026L985.2881225198507,-118.8485581241548Z" fill="#d05b4a" stroke="#d05b4a"></path><path d="M782.125289356336,-47.981999265030026L643.0165546014905,41.29620001651347L795.5345179326832,68.86212495155632Z" fill="#e55846" stroke="#e55846"></path><path d="M782.125289356336,-47.981999265030026L795.5345179326832,68.86212495155632L995.9484532289207,59.401676673442125Z" fill="#e7664f" stroke="#e7664f"></path><path d="M782.125289356336,-47.981999265030026L995.9484532289207,59.401676673442125L985.2881225198507,-118.8485581241548Z" fill="#da6654" stroke="#da6654"></path><path d="M985.2881225198507,-118.8485581241548L995.9484532289207,59.401676673442125L1111.764304060489,-24.61285156197846Z" fill="#db715c" stroke="#db715c"></path><path d="M985.2881225198507,-118.8485581241548L1111.764304060489,-24.61285156197846L1249.0109438169748,-119.31233477778733Z" fill="#c8735c" stroke="#c8735c"></path><path d="M985.2881225198507,-118.8485581241548L1249.0109438169748,-119.31233477778733L2136.0210987646133,-128.7095436360687Z" fill="#a27050" stroke="#a27050"></path><path d="M1111.764304060489,-24.61285156197846L995.9484532289207,59.401676673442125L1111.5225000679493,36.69502596370876Z" fill="#e4775c" stroke="#e4775c"></path><path d="M1111.764304060489,-24.61285156197846L1111.5225000679493,36.69502596370876L1288.5734374914318,38.13647383823991Z" fill="#db785c" stroke="#db785c"></path><path d="M1111.764304060489,-24.61285156197846L1288.5734374914318,38.13647383823991L1249.0109438169748,-119.31233477778733Z" fill="#cc765c" stroke="#cc765c"></path><path d="M1249.0109438169748,-119.31233477778733L1288.5734374914318,38.13647383823991L1456.5569911245257,-40.5942980479449Z" fill="#c17559" stroke="#c17559"></path><path d="M1249.0109438169748,-119.31233477778733L1456.5569911245257,-40.5942980479449L1612.5507081951946,-67.78806145302951Z" fill="#ae7151" stroke="#ae7151"></path><path d="M1249.0109438169748,-119.31233477778733L1612.5507081951946,-67.78806145302951L1753.1995837949216,-69.78068528696895Z" fill="#a26c4b" stroke="#a26c4b"></path><path d="M1249.0109438169748,-119.31233477778733L1753.1995837949216,-69.78068528696895L2136.0210987646133,-128.7095436360687Z" fill="#886349" stroke="#886349"></path><path d="M1456.5569911245257,-40.5942980479449L1288.5734374914318,38.13647383823991L1378.239152021706,129.02530839666724Z" fill="#cf7d56" stroke="#cf7d56"></path><path d="M1456.5569911245257,-40.5942980479449L1378.239152021706,129.02530839666724L1542.4229786731303,126.71480035409331Z" fill="#cd7f51" stroke="#cd7f51"></path><path d="M1456.5569911245257,-40.5942980479449L1542.4229786731303,126.71480035409331L1612.5507081951946,-67.78806145302951Z" fill="#b76e4c" stroke="#b76e4c"></path><path d="M1612.5507081951946,-67.78806145302951L1542.4229786731303,126.71480035409331L1711.2945126648992,73.10659093782306Z" fill="#b5714b" stroke="#b5714b"></path><path d="M1612.5507081951946,-67.78806145302951L1711.2945126648992,73.10659093782306L1753.1995837949216,-69.78068528696895Z" fill="#9d644a" stroke="#9d644a"></path><path d="M1753.1995837949216,-69.78068528696895L1711.2945126648992,73.10659093782306L1817.9855833388865,89.1480097733438Z" fill="#a06749" stroke="#a06749"></path><path d="M1753.1995837949216,-69.78068528696895L1817.9855833388865,89.1480097733438L1857.3489463236183,-40.24834044277668Z" fill="#915d47" stroke="#915d47"></path><path d="M1753.1995837949216,-69.78068528696895L1857.3489463236183,-40.24834044277668L2012.5557169876993,-68.46829410642385Z" fill="#7c5945" stroke="#7c5945"></path><path d="M1753.1995837949216,-69.78068528696895L2012.5557169876993,-68.46829410642385L2136.0210987646133,-128.7095436360687Z" fill="#675241" stroke="#675241"></path><path d="M1857.3489463236183,-40.24834044277668L1817.9855833388865,89.1480097733438L2049.0031026955694,74.44084751419723Z" fill="#8d5f44" stroke="#8d5f44"></path><path d="M1857.3489463236183,-40.24834044277668L2049.0031026955694,74.44084751419723L2012.5557169876993,-68.46829410642385Z" fill="#785141" stroke="#785141"></path><path d="M2012.5557169876993,-68.46829410642385L2049.0031026955694,74.44084751419723L2136.0210987646133,-128.7095436360687Z" fill="#664a3e" stroke="#664a3e"></path><path d="M2136.0210987646133,-128.7095436360687L2049.0031026955694,74.44084751419723L2160.009204586968,123.8690088596195Z" fill="#714b3b" stroke="#714b3b"></path><path d="M2136.0210987646133,-128.7095436360687L2160.009204586968,123.8690088596195L2362.0537706650794,-39.7090916801244Z" fill="#633c36" stroke="#633c36"></path><path d="M2136.0210987646133,-128.7095436360687L2362.0537706650794,-39.7090916801244L2624.5712118968368,-106.17894141934812Z" fill="#4e2d2e" stroke="#4e2d2e"></path><path d="M2362.0537706650794,-39.7090916801244L2160.009204586968,123.8690088596195L2367.6659028232098,90.30412464402616Z" fill="#704132" stroke="#704132"></path><path d="M2362.0537706650794,-39.7090916801244L2367.6659028232098,90.30412464402616L2432.7972827944905,22.680586483329535Z" fill="#68322e" stroke="#68322e"></path><path d="M2362.0537706650794,-39.7090916801244L2432.7972827944905,22.680586483329535L2474.712667269632,-21.471753269433975Z" fill="#60292c" stroke="#60292c"></path><path d="M2362.0537706650794,-39.7090916801244L2474.712667269632,-21.471753269433975L2624.5712118968368,-106.17894141934812Z" fill="#562329" stroke="#562329"></path><path d="M2474.712667269632,-21.471753269433975L2432.7972827944905,22.680586483329535L2616.4307833928615,89.66607523150742Z" fill="#692728" stroke="#692728"></path><path d="M2474.712667269632,-21.471753269433975L2616.4307833928615,89.66607523150742L2624.5712118968368,-106.17894141934812Z" fill="#601b25" stroke="#601b25"></path><path d="M2624.5712118968368,-106.17894141934812L2616.4307833928615,89.66607523150742L2814.102970948443,-32.95961061492562Z" fill="#5f101f" stroke="#5f101f"></path><path d="M2814.102970948443,-32.95961061492562L2616.4307833928615,89.66607523150742L2801.368821412325,103.43454323709011Z" fill="#6f161d" stroke="#6f161d"></path><path d="M2814.102970948443,-32.95961061492562L2801.368821412325,103.43454323709011L2826.5399284567684,384.2789228539914Z" fill="#80271d" stroke="#80271d"></path><path d="M-105.34888959489763,42.80883863568306L-124.68347797170281,874.1088221222162L-67.84516436979175,468.0918600317091Z" fill="#c9755b" stroke="#c9755b"></path><path d="M-105.34888959489763,42.80883863568306L-67.84516436979175,468.0918600317091L-68.2462449464947,165.9414762351662Z" fill="#ca3737" stroke="#ca3737"></path><path d="M-105.34888959489763,42.80883863568306L-68.2462449464947,165.9414762351662L83.00958632491529,31.8177227396518Z" fill="#c4122a" stroke="#c4122a"></path><path d="M83.00958632491529,31.8177227396518L-68.2462449464947,165.9414762351662L71.46872864104807,243.1165639590472Z" fill="#d5242c" stroke="#d5242c"></path><path d="M83.00958632491529,31.8177227396518L71.46872864104807,243.1165639590472L202.72808136418462,173.18024832755327Z" fill="#de2d2d" stroke="#de2d2d"></path><path d="M83.00958632491529,31.8177227396518L202.72808136418462,173.18024832755327L270.1539929397404,55.23257760331035Z" fill="#db252b" stroke="#db252b"></path><path d="M270.1539929397404,55.23257760331035L202.72808136418462,173.18024832755327L382.44252663105726,103.03472081199288Z" fill="#e8342c" stroke="#e8342c"></path><path d="M382.44252663105726,103.03472081199288L202.72808136418462,173.18024832755327L386.257740939036,252.36670441925526Z" fill="#ef4a34" stroke="#ef4a34"></path><path d="M382.44252663105726,103.03472081199288L386.257740939036,252.36670441925526L518.985443841666,107.18318299390376Z" fill="#f55037" stroke="#f55037"></path><path d="M518.985443841666,107.18318299390376L386.257740939036,252.36670441925526L547.5657835509628,242.91979051195085Z" fill="#f86440" stroke="#f86440"></path><path d="M518.985443841666,107.18318299390376L547.5657835509628,242.91979051195085L646.4470867440104,249.22728488221765Z" fill="#fb6e45" stroke="#fb6e45"></path><path d="M518.985443841666,107.18318299390376L646.4470867440104,249.22728488221765L643.0165546014905,41.29620001651347Z" fill="#fb5f3f" stroke="#fb5f3f"></path><path d="M643.0165546014905,41.29620001651347L646.4470867440104,249.22728488221765L795.5345179326832,68.86212495155632Z" fill="#fa6844" stroke="#fa6844"></path><path d="M795.5345179326832,68.86212495155632L646.4470867440104,249.22728488221765L847.9751034267247,176.83024445548654Z" fill="#fe7d4c" stroke="#fe7d4c"></path><path d="M795.5345179326832,68.86212495155632L847.9751034267247,176.83024445548654L995.9484532289207,59.401676673442125Z" fill="#f87951" stroke="#f87951"></path><path d="M995.9484532289207,59.401676673442125L847.9751034267247,176.83024445548654L962.3871058411896,250.1954495999962Z" fill="#ff8d5a" stroke="#ff8d5a"></path><path d="M995.9484532289207,59.401676673442125L962.3871058411896,250.1954495999962L1092.1571628469974,217.1426257956773Z" fill="#ff9962" stroke="#ff9962"></path><path d="M995.9484532289207,59.401676673442125L1092.1571628469974,217.1426257956773L1111.5225000679493,36.69502596370876Z" fill="#f6895d" stroke="#f6895d"></path><path d="M1111.5225000679493,36.69502596370876L1092.1571628469974,217.1426257956773L1288.5734374914318,38.13647383823991Z" fill="#ed8a5d" stroke="#ed8a5d"></path><path d="M1288.5734374914318,38.13647383823991L1092.1571628469974,217.1426257956773L1317.1360743418336,241.41771792434156Z" fill="#f09d61" stroke="#f09d61"></path><path d="M1288.5734374914318,38.13647383823991L1317.1360743418336,241.41771792434156L1378.239152021706,129.02530839666724Z" fill="#e7945b" stroke="#e7945b"></path><path d="M1378.239152021706,129.02530839666724L1317.1360743418336,241.41771792434156L1445.6377169676125,167.68572720699012Z" fill="#e29e5d" stroke="#e29e5d"></path><path d="M1378.239152021706,129.02530839666724L1445.6377169676125,167.68572720699012L1542.4229786731303,126.71480035409331Z" fill="#db9053" stroke="#db9053"></path><path d="M1542.4229786731303,126.71480035409331L1445.6377169676125,167.68572720699012L1628.176458645612,264.568453123793Z" fill="#d29854" stroke="#d29854"></path><path d="M1542.4229786731303,126.71480035409331L1628.176458645612,264.568453123793L1711.2945126648992,73.10659093782306Z" fill="#c78b4e" stroke="#c78b4e"></path><path d="M1711.2945126648992,73.10659093782306L1628.176458645612,264.568453123793L1769.1109034232795,236.75470869988203Z" fill="#be9152" stroke="#be9152"></path><path d="M1711.2945126648992,73.10659093782306L1769.1109034232795,236.75470869988203L1817.9855833388865,89.1480097733438Z" fill="#b67e4a" stroke="#b67e4a"></path><path d="M1817.9855833388865,89.1480097733438L1769.1109034232795,236.75470869988203L1876.465779254213,252.09630081430078Z" fill="#ae8a50" stroke="#ae8a50"></path><path d="M1817.9855833388865,89.1480097733438L1876.465779254213,252.09630081430078L2049.0031026955694,74.44084751419723Z" fill="#a07545" stroke="#a07545"></path><path d="M2049.0031026955694,74.44084751419723L1876.465779254213,252.09630081430078L2046.3820259459317,228.4192744642496Z" fill="#957c48" stroke="#957c48"></path><path d="M2049.0031026955694,74.44084751419723L2046.3820259459317,228.4192744642496L2145.3874904382974,192.50318007543683Z" fill="#8b6f42" stroke="#8b6f42"></path><path d="M2049.0031026955694,74.44084751419723L2145.3874904382974,192.50318007543683L2160.009204586968,123.8690088596195Z" fill="#89623c" stroke="#89623c"></path><path d="M2160.009204586968,123.8690088596195L2145.3874904382974,192.50318007543683L2265.58425989002,166.04603888466954Z" fill="#85643c" stroke="#85643c"></path><path d="M2160.009204586968,123.8690088596195L2265.58425989002,166.04603888466954L2367.6659028232098,90.30412464402616Z" fill="#815335" stroke="#815335"></path><path d="M2367.6659028232098,90.30412464402616L2265.58425989002,166.04603888466954L2440.17421156168,197.73036598227918Z" fill="#805133" stroke="#805133"></path><path d="M2367.6659028232098,90.30412464402616L2440.17421156168,197.73036598227918L2432.7972827944905,22.680586483329535Z" fill="#7a402d" stroke="#7a402d"></path><path d="M2432.7972827944905,22.680586483329535L2440.17421156168,197.73036598227918L2616.4307833928615,89.66607523150742Z" fill="#7a3829" stroke="#7a3829"></path><path d="M2616.4307833928615,89.66607523150742L2440.17421156168,197.73036598227918L2569.1824730392545,274.1677141562104Z" fill="#804a2e" stroke="#804a2e"></path><path d="M2616.4307833928615,89.66607523150742L2569.1824730392545,274.1677141562104L2773.5356260836124,248.34780419245362Z" fill="#80442b" stroke="#80442b"></path><path d="M2616.4307833928615,89.66607523150742L2773.5356260836124,248.34780419245362L2801.368821412325,103.43454323709011Z" fill="#802d20" stroke="#802d20"></path><path d="M2801.368821412325,103.43454323709011L2773.5356260836124,248.34780419245362L2826.5399284567684,384.2789228539914Z" fill="#804229" stroke="#804229"></path><path d="M-68.2462449464947,165.9414762351662L-67.84516436979175,468.0918600317091L-24.725640825927258,324.7624702937901Z" fill="#cd5343" stroke="#cd5343"></path><path d="M-68.2462449464947,165.9414762351662L-24.725640825927258,324.7624702937901L71.46872864104807,243.1165639590472Z" fill="#d23d39" stroke="#d23d39"></path><path d="M71.46872864104807,243.1165639590472L-24.725640825927258,324.7624702937901L94.94339989498258,338.1903862114996Z" fill="#d75241" stroke="#d75241"></path><path d="M71.46872864104807,243.1165639590472L94.94339989498258,338.1903862114996L202.72808136418462,173.18024832755327Z" fill="#de4a3a" stroke="#de4a3a"></path><path d="M202.72808136418462,173.18024832755327L94.94339989498258,338.1903862114996L223.78096723929048,417.8644126933068Z" fill="#e36042" stroke="#e36042"></path><path d="M202.72808136418462,173.18024832755327L223.78096723929048,417.8644126933068L386.257740939036,252.36670441925526Z" fill="#ec6140" stroke="#ec6140"></path><path d="M386.257740939036,252.36670441925526L223.78096723929048,417.8644126933068L389.8966964799911,431.52646475471556Z" fill="#f0824f" stroke="#f0824f"></path><path d="M386.257740939036,252.36670441925526L389.8966964799911,431.52646475471556L580.9618120919913,337.2395721171051Z" fill="#f68851" stroke="#f68851"></path><path d="M386.257740939036,252.36670441925526L580.9618120919913,337.2395721171051L547.5657835509628,242.91979051195085Z" fill="#f97c4c" stroke="#f97c4c"></path><path d="M547.5657835509628,242.91979051195085L580.9618120919913,337.2395721171051L646.4470867440104,249.22728488221765Z" fill="#fb8650" stroke="#fb8650"></path><path d="M646.4470867440104,249.22728488221765L580.9618120919913,337.2395721171051L685.2164714969695,328.1939425226301Z" fill="#fc9557" stroke="#fc9557"></path><path d="M646.4470867440104,249.22728488221765L685.2164714969695,328.1939425226301L847.9751034267247,176.83024445548654Z" fill="#fe9155" stroke="#fe9155"></path><path d="M847.9751034267247,176.83024445548654L685.2164714969695,328.1939425226301L775.6806627474725,364.22317617572844Z" fill="#fea15d" stroke="#fea15d"></path><path d="M847.9751034267247,176.83024445548654L775.6806627474725,364.22317617572844L962.3871058411896,250.1954495999962Z" fill="#fea361" stroke="#fea361"></path><path d="M962.3871058411896,250.1954495999962L775.6806627474725,364.22317617572844L959.114757059142,379.6351806912571Z" fill="#ffba6d" stroke="#ffba6d"></path><path d="M962.3871058411896,250.1954495999962L959.114757059142,379.6351806912571L1101.6802245285362,380.9524814877659Z" fill="#ffc677" stroke="#ffc677"></path><path d="M962.3871058411896,250.1954495999962L1101.6802245285362,380.9524814877659L1092.1571628469974,217.1426257956773Z" fill="#fdb971" stroke="#fdb971"></path><path d="M1092.1571628469974,217.1426257956773L1101.6802245285362,380.9524814877659L1317.1360743418336,241.41771792434156Z" fill="#f4bb70" stroke="#f4bb70"></path><path d="M1317.1360743418336,241.41771792434156L1101.6802245285362,380.9524814877659L1306.529757147655,401.53781441040337Z" fill="#efd079" stroke="#efd079"></path><path d="M1317.1360743418336,241.41771792434156L1306.529757147655,401.53781441040337L1449.8110138066113,406.71250325627625Z" fill="#e4d075" stroke="#e4d075"></path><path d="M1317.1360743418336,241.41771792434156L1449.8110138066113,406.71250325627625L1445.6377169676125,167.68572720699012Z" fill="#e0b767" stroke="#e0b767"></path><path d="M1445.6377169676125,167.68572720699012L1449.8110138066113,406.71250325627625L1592.6830313634127,352.805707231164Z" fill="#d6be66" stroke="#d6be66"></path><path d="M1445.6377169676125,167.68572720699012L1592.6830313634127,352.805707231164L1628.176458645612,264.568453123793Z" fill="#d0ad5d" stroke="#d0ad5d"></path><path d="M1628.176458645612,264.568453123793L1592.6830313634127,352.805707231164L1758.3309460245073,317.21087699756026Z" fill="#c3b663" stroke="#c3b663"></path><path d="M1628.176458645612,264.568453123793L1758.3309460245073,317.21087699756026L1769.1109034232795,236.75470869988203Z" fill="#bca75c" stroke="#bca75c"></path><path d="M1769.1109034232795,236.75470869988203L1758.3309460245073,317.21087699756026L1876.465779254213,252.09630081430078Z" fill="#b1a15a" stroke="#b1a15a"></path><path d="M1876.465779254213,252.09630081430078L1758.3309460245073,317.21087699756026L1905.8710966072977,338.57580587267876Z" fill="#aaa85d" stroke="#aaa85d"></path><path d="M1876.465779254213,252.09630081430078L1905.8710966072977,338.57580587267876L2046.3820259459317,228.4192744642496Z" fill="#9c9856" stroke="#9c9856"></path><path d="M2046.3820259459317,228.4192744642496L1905.8710966072977,338.57580587267876L1973.1892575323582,429.6058682631701Z" fill="#97a75c" stroke="#97a75c"></path><path d="M2046.3820259459317,228.4192744642496L1973.1892575323582,429.6058682631701L2187.473534150049,328.72458374127746Z" fill="#8c9f58" stroke="#8c9f58"></path><path d="M2046.3820259459317,228.4192744642496L2187.473534150049,328.72458374127746L2145.3874904382974,192.50318007543683Z" fill="#89834b" stroke="#89834b"></path><path d="M2145.3874904382974,192.50318007543683L2187.473534150049,328.72458374127746L2265.58425989002,166.04603888466954Z" fill="#857645" stroke="#857645"></path><path d="M2265.58425989002,166.04603888466954L2187.473534150049,328.72458374127746L2379.3819123879075,353.57737300917506Z" fill="#817e48" stroke="#817e48"></path><path d="M2265.58425989002,166.04603888466954L2379.3819123879075,353.57737300917506L2440.17421156168,197.73036598227918Z" fill="#80693e" stroke="#80693e"></path><path d="M2440.17421156168,197.73036598227918L2379.3819123879075,353.57737300917506L2478.204235956073,345.30656665563583Z" fill="#807442" stroke="#807442"></path><path d="M2440.17421156168,197.73036598227918L2478.204235956073,345.30656665563583L2569.1824730392545,274.1677141562104Z" fill="#80663c" stroke="#80663c"></path><path d="M2569.1824730392545,274.1677141562104L2478.204235956073,345.30656665563583L2680.252603618428,324.6187222748995Z" fill="#806b3e" stroke="#806b3e"></path><path d="M2569.1824730392545,274.1677141562104L2680.252603618428,324.6187222748995L2773.5356260836124,248.34780419245362Z" fill="#805934" stroke="#805934"></path><path d="M2773.5356260836124,248.34780419245362L2680.252603618428,324.6187222748995L2826.5399284567684,384.2789228539914Z" fill="#805c35" stroke="#805c35"></path><path d="M-24.725640825927258,324.7624702937901L-67.84516436979175,468.0918600317091L94.94339989498258,338.1903862114996Z" fill="#d2644b" stroke="#d2644b"></path><path d="M94.94339989498258,338.1903862114996L-67.84516436979175,468.0918600317091L112.28432547301054,575.2165470644832Z" fill="#d7795a" stroke="#d7795a"></path><path d="M94.94339989498258,338.1903862114996L112.28432547301054,575.2165470644832L223.78096723929048,417.8644126933068Z" fill="#e07f58" stroke="#e07f58"></path><path d="M223.78096723929048,417.8644126933068L112.28432547301054,575.2165470644832L187.963339202106,583.323665689677Z" fill="#e39067" stroke="#e39067"></path><path d="M223.78096723929048,417.8644126933068L187.963339202106,583.323665689677L393.08520938269794,517.7153141330928Z" fill="#ec9764" stroke="#ec9764"></path><path d="M223.78096723929048,417.8644126933068L393.08520938269794,517.7153141330928L389.8966964799911,431.52646475471556Z" fill="#f0955f" stroke="#f0955f"></path><path d="M389.8966964799911,431.52646475471556L393.08520938269794,517.7153141330928L493.95916253328323,551.6062303259969Z" fill="#f5a86c" stroke="#f5a86c"></path><path d="M389.8966964799911,431.52646475471556L493.95916253328323,551.6062303259969L580.9618120919913,337.2395721171051Z" fill="#f8a563" stroke="#f8a563"></path><path d="M580.9618120919913,337.2395721171051L493.95916253328323,551.6062303259969L720.3437621053308,490.9539486654103Z" fill="#fbb66e" stroke="#fbb66e"></path><path d="M580.9618120919913,337.2395721171051L720.3437621053308,490.9539486654103L685.2164714969695,328.1939425226301Z" fill="#fcb064" stroke="#fcb064"></path><path d="M685.2164714969695,328.1939425226301L720.3437621053308,490.9539486654103L775.6806627474725,364.22317617572844Z" fill="#feba69" stroke="#feba69"></path><path d="M775.6806627474725,364.22317617572844L720.3437621053308,490.9539486654103L800.2863000612706,497.972409222275Z" fill="#feca76" stroke="#feca76"></path><path d="M775.6806627474725,364.22317617572844L800.2863000612706,497.972409222275L959.114757059142,379.6351806912571Z" fill="#fecb75" stroke="#fecb75"></path><path d="M959.114757059142,379.6351806912571L800.2863000612706,497.972409222275L1018.5731018520892,521.2793238647282Z" fill="#ffdc86" stroke="#ffdc86"></path><path d="M959.114757059142,379.6351806912571L1018.5731018520892,521.2793238647282L1085.4699659720063,477.3147345241159Z" fill="#ffe48d" stroke="#ffe48d"></path><path d="M959.114757059142,379.6351806912571L1085.4699659720063,477.3147345241159L1101.6802245285362,380.9524814877659Z" fill="#fddd84" stroke="#fddd84"></path><path d="M1101.6802245285362,380.9524814877659L1085.4699659720063,477.3147345241159L1231.55756033957,483.4671292081475Z" fill="#f6e68a" stroke="#f6e68a"></path><path d="M1101.6802245285362,380.9524814877659L1231.55756033957,483.4671292081475L1306.529757147655,401.53781441040337Z" fill="#f1e385" stroke="#f1e385"></path><path d="M1306.529757147655,401.53781441040337L1231.55756033957,483.4671292081475L1482.2427353449166,481.1006122548133Z" fill="#e6e988" stroke="#e6e988"></path><path d="M1306.529757147655,401.53781441040337L1482.2427353449166,481.1006122548133L1449.8110138066113,406.71250325627625Z" fill="#dfe07e" stroke="#dfe07e"></path><path d="M1449.8110138066113,406.71250325627625L1482.2427353449166,481.1006122548133L1592.6830313634127,352.805707231164Z" fill="#d5d975" stroke="#d5d975"></path><path d="M1592.6830313634127,352.805707231164L1482.2427353449166,481.1006122548133L1631.4661380741745,573.8845000136644Z" fill="#cee17e" stroke="#cee17e"></path><path d="M1592.6830313634127,352.805707231164L1631.4661380741745,573.8845000136644L1728.7202068325132,470.3084284532815Z" fill="#c4dc7c" stroke="#c4dc7c"></path><path d="M1592.6830313634127,352.805707231164L1728.7202068325132,470.3084284532815L1758.3309460245073,317.21087699756026Z" fill="#bfc96b" stroke="#bfc96b"></path><path d="M1758.3309460245073,317.21087699756026L1728.7202068325132,470.3084284532815L1905.8710966072977,338.57580587267876Z" fill="#b1c169" stroke="#b1c169"></path><path d="M1905.8710966072977,338.57580587267876L1728.7202068325132,470.3084284532815L1870.0101378187537,517.6220488920808Z" fill="#accc74" stroke="#accc74"></path><path d="M1905.8710966072977,338.57580587267876L1870.0101378187537,517.6220488920808L1973.1892575323582,429.6058682631701Z" fill="#a0c46e" stroke="#a0c46e"></path><path d="M1973.1892575323582,429.6058682631701L1870.0101378187537,517.6220488920808L2003.1433068495244,636.6986971814185Z" fill="#9bd37f" stroke="#9bd37f"></path><path d="M1973.1892575323582,429.6058682631701L2003.1433068495244,636.6986971814185L2081.121848858893,533.8008186779916Z" fill="#91ce7c" stroke="#91ce7c"></path><path d="M1973.1892575323582,429.6058682631701L2081.121848858893,533.8008186779916L2187.473534150049,328.72458374127746Z" fill="#8bb868" stroke="#8bb868"></path><path d="M2187.473534150049,328.72458374127746L2081.121848858893,533.8008186779916L2210.669454820454,482.8201984707266Z" fill="#87b368" stroke="#87b368"></path><path d="M2187.473534150049,328.72458374127746L2210.669454820454,482.8201984707266L2379.3819123879075,353.57737300917506Z" fill="#829f57" stroke="#829f57"></path><path d="M2379.3819123879075,353.57737300917506L2210.669454820454,482.8201984707266L2353.3233134262264,511.65129164233804Z" fill="#80a560" stroke="#80a560"></path><path d="M2379.3819123879075,353.57737300917506L2353.3233134262264,511.65129164233804L2478.204235956073,345.30656665563583Z" fill="#809553" stroke="#809553"></path><path d="M2478.204235956073,345.30656665563583L2353.3233134262264,511.65129164233804L2511.0621007718146,556.8410289287567Z" fill="#809d5e" stroke="#809d5e"></path><path d="M2478.204235956073,345.30656665563583L2511.0621007718146,556.8410289287567L2587.94012401253,503.235120261088Z" fill="#809559" stroke="#809559"></path><path d="M2478.204235956073,345.30656665563583L2587.94012401253,503.235120261088L2680.252603618428,324.6187222748995Z" fill="#808147" stroke="#808147"></path><path d="M2680.252603618428,324.6187222748995L2587.94012401253,503.235120261088L2735.90081255883,535.1160508487374Z" fill="#808550" stroke="#808550"></path><path d="M2680.252603618428,324.6187222748995L2735.90081255883,535.1160508487374L2826.5399284567684,384.2789228539914Z" fill="#807644" stroke="#807644"></path><path d="M2826.5399284567684,384.2789228539914L2735.90081255883,535.1160508487374L2770.729149961844,621.7316079419106Z" fill="#808556" stroke="#808556"></path><path d="M2826.5399284567684,384.2789228539914L2770.729149961844,621.7316079419106L2794.589515356347,989.1764794383198Z" fill="#7d8554" stroke="#7d8554"></path><path d="M2826.5399284567684,384.2789228539914L2794.589515356347,989.1764794383198L2820.2877384703606,1475.6379711348563Z" fill="#306e3a" stroke="#306e3a"></path><path d="M-67.84516436979175,468.0918600317091L-124.68347797170281,874.1088221222162L-42.417548233643174,621.545706577599Z" fill="#ca8066" stroke="#ca8066"></path><path d="M-67.84516436979175,468.0918600317091L-42.417548233643174,621.545706577599L112.28432547301054,575.2165470644832Z" fill="#d28066" stroke="#d28066"></path><path d="M112.28432547301054,575.2165470644832L-42.417548233643174,621.545706577599L102.78983046300709,728.5188774671406Z" fill="#d88566" stroke="#d88566"></path><path d="M112.28432547301054,575.2165470644832L102.78983046300709,728.5188774671406L185.1047230605036,671.5011777542531Z" fill="#de8c66" stroke="#de8c66"></path><path d="M112.28432547301054,575.2165470644832L185.1047230605036,671.5011777542531L187.963339202106,583.323665689677Z" fill="#e28f67" stroke="#e28f67"></path><path d="M187.963339202106,583.323665689677L185.1047230605036,671.5011777542531L400.7192631997168,733.9332339819521Z" fill="#e99865" stroke="#e99865"></path><path d="M187.963339202106,583.323665689677L400.7192631997168,733.9332339819521L393.08520938269794,517.7153141330928Z" fill="#efa06b" stroke="#efa06b"></path><path d="M393.08520938269794,517.7153141330928L400.7192631997168,733.9332339819521L493.95916253328323,551.6062303259969Z" fill="#f5ac70" stroke="#f5ac70"></path><path d="M493.95916253328323,551.6062303259969L400.7192631997168,733.9332339819521L542.3836026247591,693.1418134085834Z" fill="#f6b271" stroke="#f6b271"></path><path d="M493.95916253328323,551.6062303259969L542.3836026247591,693.1418134085834L720.3437621053308,490.9539486654103Z" fill="#fbc079" stroke="#fbc079"></path><path d="M720.3437621053308,490.9539486654103L542.3836026247591,693.1418134085834L733.5245444532484,668.9433628600091Z" fill="#fcca7e" stroke="#fcca7e"></path><path d="M720.3437621053308,490.9539486654103L733.5245444532484,668.9433628600091L816.1319782678038,615.3112807217985Z" fill="#fed583" stroke="#fed583"></path><path d="M720.3437621053308,490.9539486654103L816.1319782678038,615.3112807217985L800.2863000612706,497.972409222275Z" fill="#fed885" stroke="#fed885"></path><path d="M800.2863000612706,497.972409222275L816.1319782678038,615.3112807217985L977.2636676207185,630.2407955657691Z" fill="#fee08c" stroke="#fee08c"></path><path d="M800.2863000612706,497.972409222275L977.2636676207185,630.2407955657691L1018.5731018520892,521.2793238647282Z" fill="#ffe791" stroke="#ffe791"></path><path d="M1018.5731018520892,521.2793238647282L977.2636676207185,630.2407955657691L1160.471910154447,724.3301039468497Z" fill="#fdf199" stroke="#fdf199"></path><path d="M1018.5731018520892,521.2793238647282L1160.471910154447,724.3301039468497L1243.3699303865433,623.6384533345699Z" fill="#f6f399" stroke="#f6f399"></path><path d="M1018.5731018520892,521.2793238647282L1243.3699303865433,623.6384533345699L1085.4699659720063,477.3147345241159Z" fill="#f8f299" stroke="#f8f299"></path><path d="M1085.4699659720063,477.3147345241159L1243.3699303865433,623.6384533345699L1231.55756033957,483.4671292081475Z" fill="#f3f599" stroke="#f3f599"></path><path d="M1231.55756033957,483.4671292081475L1243.3699303865433,623.6384533345699L1398.365294225514,671.3389958906919Z" fill="#ebf798" stroke="#ebf798"></path><path d="M1231.55756033957,483.4671292081475L1398.365294225514,671.3389958906919L1482.2427353449166,481.1006122548133Z" fill="#e3f393" stroke="#e3f393"></path><path d="M1482.2427353449166,481.1006122548133L1398.365294225514,671.3389958906919L1631.4661380741745,573.8845000136644Z" fill="#d6ee8a" stroke="#d6ee8a"></path><path d="M1631.4661380741745,573.8845000136644L1398.365294225514,671.3389958906919L1626.5786593873054,679.9409580789506Z" fill="#d0eb88" stroke="#d0eb88"></path><path d="M1631.4661380741745,573.8845000136644L1626.5786593873054,679.9409580789506L1668.1217478588223,647.0095774065703Z" fill="#c5e687" stroke="#c5e687"></path><path d="M1631.4661380741745,573.8845000136644L1668.1217478588223,647.0095774065703L1728.7202068325132,470.3084284532815Z" fill="#c1e486" stroke="#c1e486"></path><path d="M1728.7202068325132,470.3084284532815L1668.1217478588223,647.0095774065703L1830.2431121841073,615.4944864939898Z" fill="#b9e185" stroke="#b9e185"></path><path d="M1728.7202068325132,470.3084284532815L1830.2431121841073,615.4944864939898L1870.0101378187537,517.6220488920808Z" fill="#b0dd84" stroke="#b0dd84"></path><path d="M1870.0101378187537,517.6220488920808L1830.2431121841073,615.4944864939898L2003.1433068495244,636.6986971814185Z" fill="#a2d681" stroke="#a2d681"></path><path d="M2081.121848858893,533.8008186779916L2003.1433068495244,636.6986971814185L2133.154386403039,652.2121339850128Z" fill="#8bc97a" stroke="#8bc97a"></path><path d="M2081.121848858893,533.8008186779916L2133.154386403039,652.2121339850128L2210.669454820454,482.8201984707266Z" fill="#88c377" stroke="#88c377"></path><path d="M2210.669454820454,482.8201984707266L2133.154386403039,652.2121339850128L2301.06196266599,644.2091096844524Z" fill="#84bc73" stroke="#84bc73"></path><path d="M2210.669454820454,482.8201984707266L2301.06196266599,644.2091096844524L2353.3233134262264,511.65129164233804Z" fill="#80b56f" stroke="#80b56f"></path><path d="M2353.3233134262264,511.65129164233804L2301.06196266599,644.2091096844524L2511.0621007718146,556.8410289287567Z" fill="#80ab6a" stroke="#80ab6a"></path><path d="M2511.0621007718146,556.8410289287567L2301.06196266599,644.2091096844524L2520.8264633920044,698.0906393844634Z" fill="#80a668" stroke="#80a668"></path><path d="M2511.0621007718146,556.8410289287567L2520.8264633920044,698.0906393844634L2650.759762544185,637.442355947569Z" fill="#809b62" stroke="#809b62"></path><path d="M2511.0621007718146,556.8410289287567L2650.759762544185,637.442355947569L2587.94012401253,503.235120261088Z" fill="#809961" stroke="#809961"></path><path d="M2587.94012401253,503.235120261088L2650.759762544185,637.442355947569L2735.90081255883,535.1160508487374Z" fill="#80925d" stroke="#80925d"></path><path d="M2735.90081255883,535.1160508487374L2650.759762544185,637.442355947569L2770.729149961844,621.7316079419106Z" fill="#808c5a" stroke="#808c5a"></path><path d="M-42.417548233643174,621.545706577599L-124.68347797170281,874.1088221222162L51.104565393179655,863.8098762743175Z" fill="#b07f52" stroke="#b07f52"></path><path d="M-42.417548233643174,621.545706577599L51.104565393179655,863.8098762743175L102.78983046300709,728.5188774671406Z" fill="#c38359" stroke="#c38359"></path><path d="M102.78983046300709,728.5188774671406L51.104565393179655,863.8098762743175L195.65310336649418,853.9055173192173Z" fill="#b78751" stroke="#b78751"></path><path d="M102.78983046300709,728.5188774671406L195.65310336649418,853.9055173192173L185.1047230605036,671.5011777542531Z" fill="#cc8f57" stroke="#cc8f57"></path><path d="M185.1047230605036,671.5011777542531L195.65310336649418,853.9055173192173L325.1468941010535,785.3458020184189Z" fill="#cf9654" stroke="#cf9654"></path><path d="M185.1047230605036,671.5011777542531L325.1468941010535,785.3458020184189L400.7192631997168,733.9332339819521Z" fill="#dc9d5d" stroke="#dc9d5d"></path><path d="M400.7192631997168,733.9332339819521L325.1468941010535,785.3458020184189L469.248363096267,875.2346230018884Z" fill="#d2a75a" stroke="#d2a75a"></path><path d="M400.7192631997168,733.9332339819521L469.248363096267,875.2346230018884L542.3836026247591,693.1418134085834Z" fill="#deb161" stroke="#deb161"></path><path d="M542.3836026247591,693.1418134085834L469.248363096267,875.2346230018884L706.6117974836379,809.5345548167825Z" fill="#dbbd64" stroke="#dbbd64"></path><path d="M542.3836026247591,693.1418134085834L706.6117974836379,809.5345548167825L733.5245444532484,668.9433628600091Z" fill="#ecc973" stroke="#ecc973"></path><path d="M733.5245444532484,668.9433628600091L706.6117974836379,809.5345548167825L823.5340686142445,796.8678307626396Z" fill="#e7d573" stroke="#e7d573"></path><path d="M733.5245444532484,668.9433628600091L823.5340686142445,796.8678307626396L816.1319782678038,615.3112807217985Z" fill="#f5d97f" stroke="#f5d97f"></path><path d="M816.1319782678038,615.3112807217985L823.5340686142445,796.8678307626396L977.2636676207185,630.2407955657691Z" fill="#f8e188" stroke="#f8e188"></path><path d="M977.2636676207185,630.2407955657691L823.5340686142445,796.8678307626396L1009.3602974619716,849.4368125684559Z" fill="#e7e781" stroke="#e7e781"></path><path d="M977.2636676207185,630.2407955657691L1009.3602974619716,849.4368125684559L1160.471910154447,724.3301039468497Z" fill="#eaf18c" stroke="#eaf18c"></path><path d="M1160.471910154447,724.3301039468497L1009.3602974619716,849.4368125684559L1139.8262810334563,804.9516670871526Z" fill="#d9f184" stroke="#d9f184"></path><path d="M1160.471910154447,724.3301039468497L1139.8262810334563,804.9516670871526L1281.3215445075184,776.1316486168653Z" fill="#d9f587" stroke="#d9f587"></path><path d="M1160.471910154447,724.3301039468497L1281.3215445075184,776.1316486168653L1243.3699303865433,623.6384533345699Z" fill="#e3f690" stroke="#e3f690"></path><path d="M1243.3699303865433,623.6384533345699L1281.3215445075184,776.1316486168653L1398.365294225514,671.3389958906919Z" fill="#e1f691" stroke="#e1f691"></path><path d="M1398.365294225514,671.3389958906919L1281.3215445075184,776.1316486168653L1379.916549520567,803.9973609801382Z" fill="#cff484" stroke="#cff484"></path><path d="M1398.365294225514,671.3389958906919L1379.916549520567,803.9973609801382L1532.5492313783616,805.6093408260494Z" fill="#c4f07d" stroke="#c4f07d"></path><path d="M1398.365294225514,671.3389958906919L1532.5492313783616,805.6093408260494L1626.5786593873054,679.9409580789506Z" fill="#c5ed7f" stroke="#c5ed7f"></path><path d="M1626.5786593873054,679.9409580789506L1532.5492313783616,805.6093408260494L1760.541416136548,832.8398329764605Z" fill="#abe674" stroke="#abe674"></path><path d="M1626.5786593873054,679.9409580789506L1760.541416136548,832.8398329764605L1668.1217478588223,647.0095774065703Z" fill="#b1e47c" stroke="#b1e47c"></path><path d="M1668.1217478588223,647.0095774065703L1760.541416136548,832.8398329764605L1830.2431121841073,615.4944864939898Z" fill="#ade07e" stroke="#ade07e"></path><path d="M1830.2431121841073,615.4944864939898L1760.541416136548,832.8398329764605L1859.0278579015285,822.2593801561743Z" fill="#98dc73" stroke="#98dc73"></path><path d="M1830.2431121841073,615.4944864939898L1859.0278579015285,822.2593801561743L2003.1433068495244,636.6986971814185Z" fill="#9ad67b" stroke="#9ad67b"></path><path d="M2003.1433068495244,636.6986971814185L1859.0278579015285,822.2593801561743L1989.3596717901528,804.2111913207918Z" fill="#84d36f" stroke="#84d36f"></path><path d="M2003.1433068495244,636.6986971814185L1989.3596717901528,804.2111913207918L2133.154386403039,652.2121339850128Z" fill="#83cc74" stroke="#83cc74"></path><path d="M2133.154386403039,652.2121339850128L1989.3596717901528,804.2111913207918L2209.8698680568486,793.048013644293Z" fill="#74c669" stroke="#74c669"></path><path d="M2133.154386403039,652.2121339850128L2209.8698680568486,793.048013644293L2301.06196266599,644.2091096844524Z" fill="#7abc6c" stroke="#7abc6c"></path><path d="M2301.06196266599,644.2091096844524L2209.8698680568486,793.048013644293L2380.8463784772903,814.6613227296621Z" fill="#6ab45f" stroke="#6ab45f"></path><path d="M2301.06196266599,644.2091096844524L2380.8463784772903,814.6613227296621L2445.104642920196,796.0021189972758Z" fill="#6aad5c" stroke="#6aad5c"></path><path d="M2301.06196266599,644.2091096844524L2445.104642920196,796.0021189972758L2520.8264633920044,698.0906393844634Z" fill="#72a85f" stroke="#72a85f"></path><path d="M2520.8264633920044,698.0906393844634L2445.104642920196,796.0021189972758L2665.392784103751,782.6870279945433Z" fill="#689d52" stroke="#689d52"></path><path d="M2520.8264633920044,698.0906393844634L2665.392784103751,782.6870279945433L2650.759762544185,637.442355947569Z" fill="#749657" stroke="#749657"></path><path d="M2650.759762544185,637.442355947569L2665.392784103751,782.6870279945433L2770.729149961844,621.7316079419106Z" fill="#798f57" stroke="#798f57"></path><path d="M2770.729149961844,621.7316079419106L2665.392784103751,782.6870279945433L2762.142856651917,841.8016252666712Z" fill="#6a8b4b" stroke="#6a8b4b"></path><path d="M2770.729149961844,621.7316079419106L2762.142856651917,841.8016252666712L2794.589515356347,989.1764794383198Z" fill="#588342" stroke="#588342"></path><path d="M-124.68347797170281,874.1088221222162L-92.68135411664844,1330.3035719320178L-94.29657108150423,1082.7324010245502Z" fill="#534f3d" stroke="#534f3d"></path><path d="M-124.68347797170281,874.1088221222162L-94.29657108150423,1082.7324010245502L-36.794933527708054,955.5759064760059Z" fill="#736749" stroke="#736749"></path><path d="M-124.68347797170281,874.1088221222162L-36.794933527708054,955.5759064760059L51.104565393179655,863.8098762743175Z" fill="#90724f" stroke="#90724f"></path><path d="M51.104565393179655,863.8098762743175L-36.794933527708054,955.5759064760059L97.3125503025949,922.550339139998Z" fill="#92744e" stroke="#92744e"></path><path d="M51.104565393179655,863.8098762743175L97.3125503025949,922.550339139998L195.65310336649418,853.9055173192173Z" fill="#a47f4f" stroke="#a47f4f"></path><path d="M195.65310336649418,853.9055173192173L97.3125503025949,922.550339139998L258.84109790436924,970.3386075329036Z" fill="#a0824e" stroke="#a0824e"></path><path d="M195.65310336649418,853.9055173192173L258.84109790436924,970.3386075329036L325.1468941010535,785.3458020184189Z" fill="#b58e50" stroke="#b58e50"></path><path d="M325.1468941010535,785.3458020184189L258.84109790436924,970.3386075329036L414.9016055557877,972.4969521537423Z" fill="#ad9253" stroke="#ad9253"></path><path d="M325.1468941010535,785.3458020184189L414.9016055557877,972.4969521537423L469.248363096267,875.2346230018884Z" fill="#bb9e58" stroke="#bb9e58"></path><path d="M469.248363096267,875.2346230018884L414.9016055557877,972.4969521537423L534.5898028369993,1015.094545148313Z" fill="#a79c57" stroke="#a79c57"></path><path d="M469.248363096267,875.2346230018884L534.5898028369993,1015.094545148313L709.6509199216962,938.4185445774347Z" fill="#ada95d" stroke="#ada95d"></path><path d="M469.248363096267,875.2346230018884L709.6509199216962,938.4185445774347L706.6117974836379,809.5345548167825Z" fill="#c4bb65" stroke="#c4bb65"></path><path d="M706.6117974836379,809.5345548167825L709.6509199216962,938.4185445774347L776.782782683149,915.8504207152873Z" fill="#c2c66a" stroke="#c2c66a"></path><path d="M706.6117974836379,809.5345548167825L776.782782683149,915.8504207152873L823.5340686142445,796.8678307626396Z" fill="#d0d06e" stroke="#d0d06e"></path><path d="M823.5340686142445,796.8678307626396L776.782782683149,915.8504207152873L963.197956038639,939.4114444591105Z" fill="#c3d374" stroke="#c3d374"></path><path d="M823.5340686142445,796.8678307626396L963.197956038639,939.4114444591105L1009.3602974619716,849.4368125684559Z" fill="#cadd7b" stroke="#cadd7b"></path><path d="M1009.3602974619716,849.4368125684559L963.197956038639,939.4114444591105L1078.5315563343465,982.7988301869482Z" fill="#b8de7f" stroke="#b8de7f"></path><path d="M1009.3602974619716,849.4368125684559L1078.5315563343465,982.7988301869482L1139.8262810334563,804.9516670871526Z" fill="#c1e682" stroke="#c1e682"></path><path d="M1139.8262810334563,804.9516670871526L1078.5315563343465,982.7988301869482L1220.0673521216959,994.5770251750946Z" fill="#ade27f" stroke="#ade27f"></path><path d="M1139.8262810334563,804.9516670871526L1220.0673521216959,994.5770251750946L1281.3215445075184,776.1316486168653Z" fill="#bdec82" stroke="#bdec82"></path><path d="M1281.3215445075184,776.1316486168653L1220.0673521216959,994.5770251750946L1379.916549520567,803.9973609801382Z" fill="#b7ee81" stroke="#b7ee81"></path><path d="M1379.916549520567,803.9973609801382L1220.0673521216959,994.5770251750946L1415.1089821010828,972.4133520014584Z" fill="#9fe47c" stroke="#9fe47c"></path><path d="M1379.916549520567,803.9973609801382L1415.1089821010828,972.4133520014584L1532.5492313783616,805.6093408260494Z" fill="#a8e778" stroke="#a8e778"></path><path d="M1532.5492313783616,805.6093408260494L1415.1089821010828,972.4133520014584L1591.599859809503,935.595461782068Z" fill="#94df72" stroke="#94df72"></path><path d="M1532.5492313783616,805.6093408260494L1591.599859809503,935.595461782068L1760.541416136548,832.8398329764605Z" fill="#94de70" stroke="#94de70"></path><path d="M1760.541416136548,832.8398329764605L1591.599859809503,935.595461782068L1678.1830463279039,951.0919846314937Z" fill="#7fd66e" stroke="#7fd66e"></path><path d="M1760.541416136548,832.8398329764605L1678.1830463279039,951.0919846314937L1926.3109124824405,1009.3015789054334Z" fill="#69cc6b" stroke="#69cc6b"></path><path d="M1760.541416136548,832.8398329764605L1926.3109124824405,1009.3015789054334L1859.0278579015285,822.2593801561743Z" fill="#6ecd6b" stroke="#6ecd6b"></path><path d="M1859.0278579015285,822.2593801561743L1926.3109124824405,1009.3015789054334L1989.3596717901528,804.2111913207918Z" fill="#65c969" stroke="#65c969"></path><path d="M1989.3596717901528,804.2111913207918L1926.3109124824405,1009.3015789054334L2080.9024731907994,940.3596369735897Z" fill="#4fbf64" stroke="#4fbf64"></path><path d="M1989.3596717901528,804.2111913207918L2080.9024731907994,940.3596369735897L2209.8698680568486,793.048013644293Z" fill="#5bc063" stroke="#5bc063"></path><path d="M2209.8698680568486,793.048013644293L2080.9024731907994,940.3596369735897L2199.101738333702,967.6162759400904Z" fill="#47b35e" stroke="#47b35e"></path><path d="M2209.8698680568486,793.048013644293L2199.101738333702,967.6162759400904L2380.8463784772903,814.6613227296621Z" fill="#4eae5a" stroke="#4eae5a"></path><path d="M2380.8463784772903,814.6613227296621L2199.101738333702,967.6162759400904L2288.856871481985,1025.188927995041Z" fill="#35a255" stroke="#35a255"></path><path d="M2380.8463784772903,814.6613227296621L2288.856871481985,1025.188927995041L2515.608843220398,942.9108501970768Z" fill="#379951" stroke="#379951"></path><path d="M2380.8463784772903,814.6613227296621L2515.608843220398,942.9108501970768L2445.104642920196,796.0021189972758Z" fill="#4f9e52" stroke="#4f9e52"></path><path d="M2445.104642920196,796.0021189972758L2515.608843220398,942.9108501970768L2665.392784103751,782.6870279945433Z" fill="#52964d" stroke="#52964d"></path><path d="M2665.392784103751,782.6870279945433L2515.608843220398,942.9108501970768L2606.4903610758483,1027.1446221135557Z" fill="#3b8848" stroke="#3b8848"></path><path d="M2665.392784103751,782.6870279945433L2606.4903610758483,1027.1446221135557L2762.142856651917,841.8016252666712Z" fill="#458445" stroke="#458445"></path><path d="M2762.142856651917,841.8016252666712L2606.4903610758483,1027.1446221135557L2794.589515356347,989.1764794383198Z" fill="#2f763f" stroke="#2f763f"></path><path d="M-36.794933527708054,955.5759064760059L-94.29657108150423,1082.7324010245502L41.97273745201528,1078.9867180399597Z" fill="#625b43" stroke="#625b43"></path><path d="M-36.794933527708054,955.5759064760059L41.97273745201528,1078.9867180399597L97.3125503025949,922.550339139998Z" fill="#7a6748" stroke="#7a6748"></path><path d="M97.3125503025949,922.550339139998L41.97273745201528,1078.9867180399597L258.84109790436924,970.3386075329036Z" fill="#827048" stroke="#827048"></path><path d="M258.84109790436924,970.3386075329036L41.97273745201528,1078.9867180399597L251.31113042123616,1179.2921377066523Z" fill="#72653f" stroke="#72653f"></path><path d="M258.84109790436924,970.3386075329036L251.31113042123616,1179.2921377066523L414.3315115850419,1173.2284858357161Z" fill="#776b3f" stroke="#776b3f"></path><path d="M258.84109790436924,970.3386075329036L414.3315115850419,1173.2284858357161L414.9016055557877,972.4969521537423Z" fill="#84804a" stroke="#84804a"></path><path d="M414.9016055557877,972.4969521537423L414.3315115850419,1173.2284858357161L545.669851731509,1078.8147698901594Z" fill="#84834a" stroke="#84834a"></path><path d="M414.9016055557877,972.4969521537423L545.669851731509,1078.8147698901594L534.5898028369993,1015.094545148313Z" fill="#929352" stroke="#929352"></path><path d="M534.5898028369993,1015.094545148313L545.669851731509,1078.8147698901594L709.6509199216962,938.4185445774347Z" fill="#97a159" stroke="#97a159"></path><path d="M709.6509199216962,938.4185445774347L545.669851731509,1078.8147698901594L691.1509438790381,1156.0180650092661Z" fill="#8c9f57" stroke="#8c9f57"></path><path d="M709.6509199216962,938.4185445774347L691.1509438790381,1156.0180650092661L845.8998701535165,1089.832475753501Z" fill="#8dab5d" stroke="#8dab5d"></path><path d="M709.6509199216962,938.4185445774347L845.8998701535165,1089.832475753501L776.782782683149,915.8504207152873Z" fill="#a4bd67" stroke="#a4bd67"></path><path d="M776.782782683149,915.8504207152873L845.8998701535165,1089.832475753501L963.197956038639,939.4114444591105Z" fill="#a4c56e" stroke="#a4c56e"></path><path d="M963.197956038639,939.4114444591105L845.8998701535165,1089.832475753501L953.1902937032282,1089.9564560037106Z" fill="#91c16d" stroke="#91c16d"></path><path d="M963.197956038639,939.4114444591105L953.1902937032282,1089.9564560037106L1078.5315563343465,982.7988301869482Z" fill="#9dcf77" stroke="#9dcf77"></path><path d="M1078.5315563343465,982.7988301869482L953.1902937032282,1089.9564560037106L1086.4821815025061,1091.3316471967846Z" fill="#8ec874" stroke="#8ec874"></path><path d="M1078.5315563343465,982.7988301869482L1086.4821815025061,1091.3316471967846L1220.0673521216959,994.5770251750946Z" fill="#8fd177" stroke="#8fd177"></path><path d="M1220.0673521216959,994.5770251750946L1086.4821815025061,1091.3316471967846L1279.4297620654106,1069.3297281023115Z" fill="#83ce74" stroke="#83ce74"></path><path d="M1220.0673521216959,994.5770251750946L1279.4297620654106,1069.3297281023115L1415.1089821010828,972.4133520014584Z" fill="#85d676" stroke="#85d676"></path><path d="M1415.1089821010828,972.4133520014584L1279.4297620654106,1069.3297281023115L1399.7156553715467,1092.7778046950698Z" fill="#75ce6f" stroke="#75ce6f"></path><path d="M1415.1089821010828,972.4133520014584L1399.7156553715467,1092.7778046950698L1591.599859809503,935.595461782068Z" fill="#79d16c" stroke="#79d16c"></path><path d="M1591.599859809503,935.595461782068L1399.7156553715467,1092.7778046950698L1667.7651805523783,1101.1038449406624Z" fill="#62c664" stroke="#62c664"></path><path d="M1591.599859809503,935.595461782068L1667.7651805523783,1101.1038449406624L1678.1830463279039,951.0919846314937Z" fill="#66c967" stroke="#66c967"></path><path d="M1678.1830463279039,951.0919846314937L1667.7651805523783,1101.1038449406624L1884.1607171483338,1096.296072928235Z" fill="#49ba61" stroke="#49ba61"></path><path d="M1678.1830463279039,951.0919846314937L1884.1607171483338,1096.296072928235L1926.3109124824405,1009.3015789054334Z" fill="#46ba62" stroke="#46ba62"></path><path d="M1926.3109124824405,1009.3015789054334L1884.1607171483338,1096.296072928235L2029.6987012121826,1069.1674388106912Z" fill="#2baa59" stroke="#2baa59"></path><path d="M1926.3109124824405,1009.3015789054334L2029.6987012121826,1069.1674388106912L2080.9024731907994,940.3596369735897Z" fill="#2faf5c" stroke="#2faf5c"></path><path d="M2080.9024731907994,940.3596369735897L2029.6987012121826,1069.1674388106912L2171.9531064201146,1097.1559264697134Z" fill="#1ea356" stroke="#1ea356"></path><path d="M2080.9024731907994,940.3596369735897L2171.9531064201146,1097.1559264697134L2199.101738333702,967.6162759400904Z" fill="#26a356" stroke="#26a356"></path><path d="M2199.101738333702,967.6162759400904L2171.9531064201146,1097.1559264697134L2288.856871481985,1025.188927995041Z" fill="#1a9850" stroke="#1a9850"></path><path d="M2288.856871481985,1025.188927995041L2171.9531064201146,1097.1559264697134L2331.961451768875,1111.101798741147Z" fill="#0f8a49" stroke="#0f8a49"></path><path d="M2288.856871481985,1025.188927995041L2331.961451768875,1111.101798741147L2427.4467890616506,1097.7418133988976Z" fill="#0d8245" stroke="#0d8245"></path><path d="M2288.856871481985,1025.188927995041L2427.4467890616506,1097.7418133988976L2515.608843220398,942.9108501970768Z" fill="#188847" stroke="#188847"></path><path d="M2515.608843220398,942.9108501970768L2427.4467890616506,1097.7418133988976L2606.4903610758483,1027.1446221135557Z" fill="#187d42" stroke="#187d42"></path><path d="M2606.4903610758483,1027.1446221135557L2427.4467890616506,1097.7418133988976L2646.3878899253905,1093.6399989388883Z" fill="#0e6f3b" stroke="#0e6f3b"></path><path d="M2606.4903610758483,1027.1446221135557L2646.3878899253905,1093.6399989388883L2747.7586394548416,1092.03289761208Z" fill="#0e6636" stroke="#0e6636"></path><path d="M2606.4903610758483,1027.1446221135557L2747.7586394548416,1092.03289761208L2794.589515356347,989.1764794383198Z" fill="#146937" stroke="#146937"></path><path d="M2794.589515356347,989.1764794383198L2747.7586394548416,1092.03289761208L2759.1716320998967,1247.947778524831Z" fill="#09542c" stroke="#09542c"></path><path d="M2794.589515356347,989.1764794383198L2759.1716320998967,1247.947778524831L2820.2877384703606,1475.6379711348563Z" fill="#00361d" stroke="#00361d"></path><path d="M-94.29657108150423,1082.7324010245502L-92.68135411664844,1330.3035719320178L41.97273745201528,1078.9867180399597Z" fill="#4f4035" stroke="#4f4035"></path><path d="M41.97273745201528,1078.9867180399597L-92.68135411664844,1330.3035719320178L124.81682810001075,1268.9571955427527Z" fill="#55352d" stroke="#55352d"></path><path d="M41.97273745201528,1078.9867180399597L124.81682810001075,1268.9571955427527L251.31113042123616,1179.2921377066523Z" fill="#604a34" stroke="#604a34"></path><path d="M251.31113042123616,1179.2921377066523L124.81682810001075,1268.9571955427527L207.91447777301073,1325.3998310118914Z" fill="#663e2a" stroke="#663e2a"></path><path d="M251.31113042123616,1179.2921377066523L207.91447777301073,1325.3998310118914L342.1498254407197,1260.334246577695Z" fill="#6c462b" stroke="#6c462b"></path><path d="M251.31113042123616,1179.2921377066523L342.1498254407197,1260.334246577695L414.3315115850419,1173.2284858357161Z" fill="#705935" stroke="#705935"></path><path d="M414.3315115850419,1173.2284858357161L342.1498254407197,1260.334246577695L487.0838247053325,1301.5205846820027Z" fill="#755934" stroke="#755934"></path><path d="M414.3315115850419,1173.2284858357161L487.0838247053325,1301.5205846820027L545.669851731509,1078.8147698901594Z" fill="#796e3f" stroke="#796e3f"></path><path d="M545.669851731509,1078.8147698901594L487.0838247053325,1301.5205846820027L691.1509438790381,1156.0180650092661Z" fill="#7b7b45" stroke="#7b7b45"></path><path d="M691.1509438790381,1156.0180650092661L487.0838247053325,1301.5205846820027L705.860591288656,1301.329301521182Z" fill="#7c7240" stroke="#7c7240"></path><path d="M691.1509438790381,1156.0180650092661L705.860591288656,1301.329301521182L875.3146896511316,1241.688057454303Z" fill="#7f874a" stroke="#7f874a"></path><path d="M691.1509438790381,1156.0180650092661L875.3146896511316,1241.688057454303L845.8998701535165,1089.832475753501Z" fill="#809b55" stroke="#809b55"></path><path d="M845.8998701535165,1089.832475753501L875.3146896511316,1241.688057454303L953.1902937032282,1089.9564560037106Z" fill="#83a85f" stroke="#83a85f"></path><path d="M953.1902937032282,1089.9564560037106L875.3146896511316,1241.688057454303L928.6774340830743,1286.6840317100286Z" fill="#7f9d5a" stroke="#7f9d5a"></path><path d="M953.1902937032282,1089.9564560037106L928.6774340830743,1286.6840317100286L1086.4821815025061,1091.3316471967846Z" fill="#81af66" stroke="#81af66"></path><path d="M1086.4821815025061,1091.3316471967846L928.6774340830743,1286.6840317100286L1149.812641767785,1216.0303603671491Z" fill="#7daa63" stroke="#7daa63"></path><path d="M1086.4821815025061,1091.3316471967846L1149.812641767785,1216.0303603671491L1279.4297620654106,1069.3297281023115Z" fill="#7abd6c" stroke="#7abd6c"></path><path d="M1279.4297620654106,1069.3297281023115L1149.812641767785,1216.0303603671491L1384.7866838146,1242.6883717719465Z" fill="#6db566" stroke="#6db566"></path><path d="M1279.4297620654106,1069.3297281023115L1384.7866838146,1242.6883717719465L1399.7156553715467,1092.7778046950698Z" fill="#6aba65" stroke="#6aba65"></path><path d="M1399.7156553715467,1092.7778046950698L1384.7866838146,1242.6883717719465L1615.6217557378113,1184.1459104698151Z" fill="#5aad5a" stroke="#5aad5a"></path><path d="M1399.7156553715467,1092.7778046950698L1615.6217557378113,1184.1459104698151L1667.7651805523783,1101.1038449406624Z" fill="#56b35b" stroke="#56b35b"></path><path d="M1615.6217557378113,1184.1459104698151L1384.7866838146,1242.6883717719465L1531.9752922095358,1306.3739092368633Z" fill="#569c4f" stroke="#569c4f"></path><path d="M1615.6217557378113,1184.1459104698151L1531.9752922095358,1306.3739092368633L1773.878768524155,1291.346017839387Z" fill="#46914a" stroke="#46914a"></path><path d="M1615.6217557378113,1184.1459104698151L1773.878768524155,1291.346017839387L1667.7651805523783,1101.1038449406624Z" fill="#409e51" stroke="#409e51"></path><path d="M1667.7651805523783,1101.1038449406624L1773.878768524155,1291.346017839387L1884.1607171483338,1096.296072928235Z" fill="#36a053" stroke="#36a053"></path><path d="M1884.1607171483338,1096.296072928235L1773.878768524155,1291.346017839387L1912.6220721937716,1262.0710001606494Z" fill="#298e4b" stroke="#298e4b"></path><path d="M1884.1607171483338,1096.296072928235L1912.6220721937716,1262.0710001606494L2029.6987012121826,1069.1674388106912Z" fill="#219850" stroke="#219850"></path><path d="M2029.6987012121826,1069.1674388106912L1912.6220721937716,1262.0710001606494L2079.1923474613577,1296.6131911799312Z" fill="#138546" stroke="#138546"></path><path d="M2029.6987012121826,1069.1674388106912L2079.1923474613577,1296.6131911799312L2171.9531064201146,1097.1559264697134Z" fill="#0d8a48" stroke="#0d8a48"></path><path d="M2171.9531064201146,1097.1559264697134L2079.1923474613577,1296.6131911799312L2201.7905722931027,1234.3702029436827Z" fill="#08783f" stroke="#08783f"></path><path d="M2171.9531064201146,1097.1559264697134L2201.7905722931027,1234.3702029436827L2331.961451768875,1111.101798741147Z" fill="#077e42" stroke="#077e42"></path><path d="M2331.961451768875,1111.101798741147L2201.7905722931027,1234.3702029436827L2337.0456743147224,1292.7966849692166Z" fill="#016a38" stroke="#016a38"></path><path d="M2331.961451768875,1111.101798741147L2337.0456743147224,1292.7966849692166L2427.4467890616506,1097.7418133988976Z" fill="#016d3a" stroke="#016d3a"></path><path d="M2427.4467890616506,1097.7418133988976L2337.0456743147224,1292.7966849692166L2481.770846368745,1274.1047174669802Z" fill="#005c31" stroke="#005c31"></path><path d="M2427.4467890616506,1097.7418133988976L2481.770846368745,1274.1047174669802L2646.3878899253905,1093.6399989388883Z" fill="#026134" stroke="#026134"></path><path d="M2646.3878899253905,1093.6399989388883L2481.770846368745,1274.1047174669802L2602.233098493889,1303.9870043937117Z" fill="#004d29" stroke="#004d29"></path><path d="M2646.3878899253905,1093.6399989388883L2602.233098493889,1303.9870043937117L2759.1716320998967,1247.947778524831Z" fill="#004625" stroke="#004625"></path><path d="M2646.3878899253905,1093.6399989388883L2759.1716320998967,1247.947778524831L2747.7586394548416,1092.03289761208Z" fill="#04512b" stroke="#04512b"></path><path d="M-92.68135411664844,1330.3035719320178L-17.374533573165536,1418.0402632243931L124.81682810001075,1268.9571955427527Z" fill="#531a20" stroke="#531a20"></path><path d="M124.81682810001075,1268.9571955427527L-17.374533573165536,1418.0402632243931L130.66101458854973,1402.28519808501Z" fill="#5b1c1e" stroke="#5b1c1e"></path><path d="M124.81682810001075,1268.9571955427527L130.66101458854973,1402.28519808501L207.91447777301073,1325.3998310118914Z" fill="#622a22" stroke="#622a22"></path><path d="M207.91447777301073,1325.3998310118914L130.66101458854973,1402.28519808501L246.60431798547506,1383.0535574443638Z" fill="#66251d" stroke="#66251d"></path><path d="M207.91447777301073,1325.3998310118914L246.60431798547506,1383.0535574443638L342.1498254407197,1260.334246577695Z" fill="#6c3623" stroke="#6c3623"></path><path d="M342.1498254407197,1260.334246577695L246.60431798547506,1383.0535574443638L328.6762315314263,1434.2774960305542Z" fill="#6f3322" stroke="#6f3322"></path><path d="M342.1498254407197,1260.334246577695L328.6762315314263,1434.2774960305542L471.4097365178168,1370.3342813439667Z" fill="#733d26" stroke="#733d26"></path><path d="M342.1498254407197,1260.334246577695L471.4097365178168,1370.3342813439667L487.0838247053325,1301.5205846820027Z" fill="#764d2e" stroke="#764d2e"></path><path d="M487.0838247053325,1301.5205846820027L471.4097365178168,1370.3342813439667L642.4543329421431,1415.2095059026033Z" fill="#7b4e2e" stroke="#7b4e2e"></path><path d="M487.0838247053325,1301.5205846820027L642.4543329421431,1415.2095059026033L705.860591288656,1301.329301521182Z" fill="#7c5d35" stroke="#7c5d35"></path><path d="M705.860591288656,1301.329301521182L642.4543329421431,1415.2095059026033L848.1175300106406,1457.1367287263274Z" fill="#7e6136" stroke="#7e6136"></path><path d="M705.860591288656,1301.329301521182L848.1175300106406,1457.1367287263274L875.3146896511316,1241.688057454303Z" fill="#7f7642" stroke="#7f7642"></path><path d="M875.3146896511316,1241.688057454303L848.1175300106406,1457.1367287263274L928.6774340830743,1286.6840317100286Z" fill="#7f7e49" stroke="#7f7e49"></path><path d="M928.6774340830743,1286.6840317100286L848.1175300106406,1457.1367287263274L921.2090427149087,1416.2343978881836Z" fill="#7f7343" stroke="#7f7343"></path><path d="M928.6774340830743,1286.6840317100286L921.2090427149087,1416.2343978881836L1125.6992009840906,1467.1116294432431Z" fill="#7f7b4b" stroke="#7f7b4b"></path><path d="M928.6774340830743,1286.6840317100286L1125.6992009840906,1467.1116294432431L1149.812641767785,1216.0303603671491Z" fill="#7c8f55" stroke="#7c8f55"></path><path d="M1149.812641767785,1216.0303603671491L1125.6992009840906,1467.1116294432431L1218.8391718268394,1443.2479022908956Z" fill="#75864f" stroke="#75864f"></path><path d="M1149.812641767785,1216.0303603671491L1218.8391718268394,1443.2479022908956L1322.5288988370448,1326.9745152443647Z" fill="#709254" stroke="#709254"></path><path d="M1149.812641767785,1216.0303603671491L1322.5288988370448,1326.9745152443647L1384.7866838146,1242.6883717719465Z" fill="#6ca25b" stroke="#6ca25b"></path><path d="M1322.5288988370448,1326.9745152443647L1218.8391718268394,1443.2479022908956L1483.6322775296867,1473.0457617435604Z" fill="#667e46" stroke="#667e46"></path><path d="M1322.5288988370448,1326.9745152443647L1483.6322775296867,1473.0457617435604L1531.9752922095358,1306.3739092368633Z" fill="#5c8445" stroke="#5c8445"></path><path d="M1322.5288988370448,1326.9745152443647L1531.9752922095358,1306.3739092368633L1384.7866838146,1242.6883717719465Z" fill="#5f9550" stroke="#5f9550"></path><path d="M1531.9752922095358,1306.3739092368633L1483.6322775296867,1473.0457617435604L1615.1648659911007,1455.2693646680564Z" fill="#52763a" stroke="#52763a"></path><path d="M1531.9752922095358,1306.3739092368633L1615.1648659911007,1455.2693646680564L1773.878768524155,1291.346017839387Z" fill="#467e40" stroke="#467e40"></path><path d="M1773.878768524155,1291.346017839387L1615.1648659911007,1455.2693646680564L1781.3813231606036,1481.997243007645Z" fill="#3b6c38" stroke="#3b6c38"></path><path d="M1773.878768524155,1291.346017839387L1781.3813231606036,1481.997243007645L1934.9141631927341,1385.054882504046Z" fill="#2d6b38" stroke="#2d6b38"></path><path d="M1773.878768524155,1291.346017839387L1934.9141631927341,1385.054882504046L1912.6220721937716,1262.0710001606494Z" fill="#27783f" stroke="#27783f"></path><path d="M1912.6220721937716,1262.0710001606494L1934.9141631927341,1385.054882504046L2079.1923474613577,1296.6131911799312Z" fill="#18703b" stroke="#18703b"></path><path d="M2079.1923474613577,1296.6131911799312L1934.9141631927341,1385.054882504046L2079.8950212355703,1447.2835165355355Z" fill="#0f5e32" stroke="#0f5e32"></path><path d="M2079.1923474613577,1296.6131911799312L2079.8950212355703,1447.2835165355355L2207.9299808945507,1372.121103387326Z" fill="#09572e" stroke="#09572e"></path><path d="M2079.1923474613577,1296.6131911799312L2207.9299808945507,1372.121103387326L2201.7905722931027,1234.3702029436827Z" fill="#076334" stroke="#076334"></path><path d="M2201.7905722931027,1234.3702029436827L2207.9299808945507,1372.121103387326L2337.0456743147224,1292.7966849692166Z" fill="#035b30" stroke="#035b30"></path><path d="M2337.0456743147224,1292.7966849692166L2207.9299808945507,1372.121103387326L2332.4272486008704,1416.1304797511548Z" fill="#014927" stroke="#014927"></path><path d="M2337.0456743147224,1292.7966849692166L2332.4272486008704,1416.1304797511548L2481.770846368745,1274.1047174669802Z" fill="#004826" stroke="#004826"></path><path d="M2481.770846368745,1274.1047174669802L2332.4272486008704,1416.1304797511548L2419.072164092213,1478.3076528925449Z" fill="#00381e" stroke="#00381e"></path><path d="M2481.770846368745,1274.1047174669802L2419.072164092213,1478.3076528925449L2602.233098493889,1303.9870043937117Z" fill="#00381d" stroke="#00381d"></path><path d="M2602.233098493889,1303.9870043937117L2419.072164092213,1478.3076528925449L2673.9917317964137,1481.91246047616Z" fill="#002312" stroke="#002312"></path><path d="M2602.233098493889,1303.9870043937117L2673.9917317964137,1481.91246047616L2759.1716320998967,1247.947778524831Z" fill="#002916" stroke="#002916"></path><path d="M2759.1716320998967,1247.947778524831L2673.9917317964137,1481.91246047616L2820.2877384703606,1475.6379711348563Z" fill="#00150c" stroke="#00150c"></path><path d="M-17.374533573165536,1418.0402632243931L328.6762315314263,1434.2774960305542L130.66101458854973,1402.28519808501Z" fill="#611618" stroke="#611618"></path><path d="M130.66101458854973,1402.28519808501L328.6762315314263,1434.2774960305542L246.60431798547506,1383.0535574443638Z" fill="#6a2119" stroke="#6a2119"></path><path d="M328.6762315314263,1434.2774960305542L848.1175300106406,1457.1367287263274L642.4543329421431,1415.2095059026033Z" fill="#7c4729" stroke="#7c4729"></path><path d="M328.6762315314263,1434.2774960305542L642.4543329421431,1415.2095059026033L471.4097365178168,1370.3342813439667Z" fill="#793e26" stroke="#793e26"></path><path d="M848.1175300106406,1457.1367287263274L1125.6992009840906,1467.1116294432431L921.2090427149087,1416.2343978881836Z" fill="#7f6d42" stroke="#7f6d42"></path><path d="M1125.6992009840906,1467.1116294432431L1781.3813231606036,1481.997243007645L1483.6322775296867,1473.0457617435604Z" fill="#5a703a" stroke="#5a703a"></path><path d="M1125.6992009840906,1467.1116294432431L1483.6322775296867,1473.0457617435604L1218.8391718268394,1443.2479022908956Z" fill="#6d7846" stroke="#6d7846"></path><path d="M1483.6322775296867,1473.0457617435604L1781.3813231606036,1481.997243007645L1615.1648659911007,1455.2693646680564Z" fill="#486834" stroke="#486834"></path><path d="M1781.3813231606036,1481.997243007645L2673.9917317964137,1481.91246047616L2419.072164092213,1478.3076528925449Z" fill="#01351c" stroke="#01351c"></path><path d="M1781.3813231606036,1481.997243007645L2419.072164092213,1478.3076528925449L2079.8950212355703,1447.2835165355355Z" fill="#0b4826" stroke="#0b4826"></path><path d="M1781.3813231606036,1481.997243007645L2079.8950212355703,1447.2835165355355L1934.9141631927341,1385.054882504046Z" fill="#1e582e" stroke="#1e582e"></path><path d="M2079.8950212355703,1447.2835165355355L2419.072164092213,1478.3076528925449L2332.4272486008704,1416.1304797511548Z" fill="#01381e" stroke="#01381e"></path><path d="M2079.8950212355703,1447.2835165355355L2332.4272486008704,1416.1304797511548L2207.9299808945507,1372.121103387326Z" fill="#054725" stroke="#054725"></path></g></svg>
